<svg width="201" height="134" viewBox="0 0 201 134" fill="none" xmlns="http://www.w3.org/2000/svg">
<g clip-path="url(#clip0)">
<rect width="960" height="6622" transform="translate(-729 -821)" fill="white"/>
<path d="M183.022 7.2668C185.171 7.45874 186.297 7.66055 187.204 7.96288C187.859 8.18128 188.399 8.45103 189.133 8.81725C189.424 8.96243 189.745 9.12278 190.116 9.30109C192.616 10.5041 195.258 12.4458 197.199 14.3238C198.169 15.2633 198.957 16.179 199.463 16.9698C199.716 17.3664 199.892 17.7198 199.986 18.0181C200.033 18.1671 200.057 18.2908 200.063 18.3885C200.066 18.4247 200.065 18.4537 200.064 18.4757C200.007 18.5199 199.906 18.5809 199.748 18.6472C199.387 18.7986 198.872 18.9198 198.22 19.0229C197.433 19.1475 196.503 19.2383 195.48 19.3382C194.808 19.4037 194.096 19.4732 193.358 19.5588C191.516 19.7723 189.535 20.0842 187.736 20.6879C185.959 21.2838 184.247 22.1989 183.022 23.7237L119.231 103.081C117.97 104.649 117.454 106.593 117.292 108.489C117.129 110.399 117.313 112.407 117.57 114.232C117.697 115.137 117.844 116.005 117.978 116.801L117.983 116.83C118.119 117.637 118.242 118.363 118.321 118.986C118.401 119.621 118.43 120.102 118.398 120.428C118.395 120.457 118.392 120.483 118.389 120.506C118.286 120.523 118.135 120.526 117.93 120.497C117.64 120.455 117.287 120.355 116.884 120.195C116.08 119.875 115.104 119.328 114.078 118.583C112.023 117.092 109.795 114.828 108.348 112.063C107.625 110.681 107.266 109.589 107.082 108.148C106.896 106.688 106.888 104.862 106.888 101.978L106.888 16.9237C106.888 14.0411 106.889 11.9141 107.019 10.2251C107.149 8.53351 107.405 7.36824 107.863 6.39155C108.678 4.65515 109.909 3.12308 111.266 2.15841C112.029 1.61581 112.921 1.35391 114.198 1.29402C115.473 1.23423 117.069 1.37612 119.231 1.56922L183.022 7.2668Z" fill="url(#paint0_linear)" stroke="url(#paint1_linear)"/>
<path d="M193.022 16.2669C195.184 16.46 196.778 16.603 197.924 16.879C199.071 17.1554 199.706 17.5537 200.011 18.1917C200.553 19.326 200.553 20.9681 200.011 22.7287C199.706 23.7191 199.071 24.8505 197.924 26.4514C196.778 28.0497 195.184 30.0343 193.022 32.7238L129.231 112.081C127.069 114.77 125.474 116.754 124.198 118.167C122.921 119.582 122.029 120.349 121.266 120.688C119.909 121.29 118.678 121.18 117.864 120.384C117.405 119.936 117.149 119.067 117.019 117.526C116.889 115.987 116.888 113.861 116.888 110.978L116.888 25.9238C116.888 23.0412 116.889 20.9142 117.019 19.2252C117.149 17.5336 117.405 16.3683 117.864 15.3916L117.516 15.2942L117.864 15.3916C118.678 13.6552 119.909 12.1232 121.266 11.1585C122.029 10.6159 122.921 10.354 124.198 10.2941C125.474 10.2343 127.069 10.3762 129.231 10.5693L193.022 16.2669Z" fill="white" stroke="url(#paint2_linear)"/>
<path d="M118.455 120.5L179.022 14.3688" stroke="url(#paint3_linear)"/>
<line y1="-0.5" x2="99.932" y2="-0.5" transform="matrix(-0.610125 -0.357436 0.614611 -1.05936 179.332 49.7417)" stroke="url(#paint4_linear)"/>
<mask id="path-5-inside-1" fill="white">
<path fill-rule="evenodd" clip-rule="evenodd" d="M91.8716 55.0939C87.5021 57.3058 71.5264 65.393 71.6311 80.4556C71.7675 101.119 85.5929 101.821 85.7623 101.82C85.6796 102.34 83.5971 112.671 78.4116 124.527C77.0552 127.763 75.6785 130.991 74.2058 134H2.4913C-0.877228 120.488 -1.37714 103.798 4.44633 88.1175C8.98316 75.7777 17.2552 65.4513 26.0975 61.3414C29.9913 59.5061 33.7258 59.7934 36.9996 60.0452C39.5032 60.2378 41.7373 60.4097 43.5672 59.5957C45.1745 58.8809 47.3459 56.7961 49.8767 54.3662C53.8651 50.5369 58.7462 45.8505 63.7185 44.3183C63.8116 44.2804 63.9117 44.2392 64.0187 44.1951C67.8216 42.6273 80.3108 37.4787 92.9551 54.4999C92.8915 54.5776 92.5025 54.7745 91.8716 55.0939Z"/>
</mask>
<path fill-rule="evenodd" clip-rule="evenodd" d="M91.8716 55.0939C87.5021 57.3058 71.5264 65.393 71.6311 80.4556C71.7675 101.119 85.5929 101.821 85.7623 101.82C85.6796 102.34 83.5971 112.671 78.4116 124.527C77.0552 127.763 75.6785 130.991 74.2058 134H2.4913C-0.877228 120.488 -1.37714 103.798 4.44633 88.1175C8.98316 75.7777 17.2552 65.4513 26.0975 61.3414C29.9913 59.5061 33.7258 59.7934 36.9996 60.0452C39.5032 60.2378 41.7373 60.4097 43.5672 59.5957C45.1745 58.8809 47.3459 56.7961 49.8767 54.3662C53.8651 50.5369 58.7462 45.8505 63.7185 44.3183C63.8116 44.2804 63.9117 44.2392 64.0187 44.1951C67.8216 42.6273 80.3108 37.4787 92.9551 54.4999C92.8915 54.5776 92.5025 54.7745 91.8716 55.0939Z" fill="url(#paint5_linear)"/>
<path d="M71.6311 80.4556L72.6311 80.449V80.4486L71.6311 80.4556ZM91.8716 55.0939L92.3232 55.9861L91.8716 55.0939ZM85.7623 101.82L86.7499 101.978L86.9342 100.819L85.7608 100.82L85.7623 101.82ZM78.4116 124.527L77.4954 124.126L77.4923 124.133L77.4893 124.14L78.4116 124.527ZM74.2058 134V135H74.8298L75.104 134.439L74.2058 134ZM2.4913 134L1.521 134.242L1.71 135H2.4913V134ZM4.44633 88.1175L5.38377 88.4657L5.3849 88.4626L4.44633 88.1175ZM26.0975 61.3414L26.519 62.2482L26.5239 62.2459L26.0975 61.3414ZM36.9996 60.0452L36.9229 61.0423L36.9996 60.0452ZM43.5672 59.5957L43.1608 58.682L43.5672 59.5957ZM49.8767 54.3662L50.5693 55.0875V55.0875L49.8767 54.3662ZM63.7185 44.3183L64.013 45.2739L64.0549 45.261L64.0955 45.2445L63.7185 44.3183ZM64.0187 44.1951L63.6375 43.2705L63.6375 43.2705L64.0187 44.1951ZM92.9551 54.4999L93.7289 55.1333L94.223 54.5298L93.7578 53.9036L92.9551 54.4999ZM72.6311 80.4486C72.5815 73.3054 76.3377 67.7674 80.752 63.6904C85.1683 59.6115 90.1445 57.089 92.3232 55.9861L91.42 54.2017C89.2292 55.3107 84.0328 57.9378 79.3951 62.2211C74.7553 66.5063 70.5761 72.5432 70.6312 80.4625L72.6311 80.4486ZM85.7608 100.82C85.8298 100.82 82.5726 100.682 79.3039 98.102C76.0892 95.5647 72.6977 90.5341 72.6311 80.449L70.6312 80.4622C70.701 91.0407 74.2903 96.6927 78.0647 99.6719C81.7852 102.609 85.5253 102.821 85.7637 102.82L85.7608 100.82ZM79.3278 124.927C84.551 112.985 86.6554 102.572 86.7499 101.978L84.7747 101.663C84.7747 101.663 84.7745 101.665 84.774 101.667C84.7736 101.67 84.7729 101.674 84.7721 101.678C84.7705 101.688 84.7683 101.7 84.7654 101.715C84.7597 101.746 84.7519 101.787 84.7419 101.838C84.7218 101.94 84.6936 102.079 84.6569 102.253C84.5835 102.6 84.4768 103.086 84.3345 103.692C84.05 104.905 83.6238 106.6 83.0389 108.648C81.8688 112.746 80.066 118.249 77.4954 124.126L79.3278 124.927ZM75.104 134.439C76.5908 131.401 77.9773 128.15 79.3339 124.913L77.4893 124.14C76.133 127.376 74.7662 130.58 73.3076 133.56L75.104 134.439ZM2.4913 135H74.2058V133H2.4913V135ZM3.50889 87.7694C-2.39964 103.679 -1.88477 120.581 1.521 134.242L3.4616 133.758C0.130309 120.396 -0.354646 103.917 5.38376 88.4657L3.50889 87.7694ZM25.676 60.4345C16.5152 64.6926 8.1008 75.2797 3.50775 87.7724L5.3849 88.4626C9.86552 76.2757 17.9952 66.2101 26.519 62.2482L25.676 60.4345ZM37.0763 59.0482C33.8179 58.7975 29.8324 58.4755 25.6712 60.4368L26.5239 62.2459C30.1502 60.5367 33.6337 60.7893 36.9229 61.0423L37.0763 59.0482ZM43.1608 58.682C41.6089 59.3723 39.6574 59.2467 37.0763 59.0482L36.9229 61.0423C39.3489 61.2289 41.8657 61.447 43.9736 60.5094L43.1608 58.682ZM49.1841 53.6448C47.913 54.8653 46.7583 55.9736 45.7225 56.8668C44.672 57.7728 43.8211 58.3884 43.1608 58.682L43.9736 60.5094C44.9206 60.0882 45.959 59.3039 47.0287 58.3814C48.1132 57.446 49.3096 56.297 50.5693 55.0875L49.1841 53.6448ZM63.424 43.3626C60.7668 44.1815 58.1903 45.8219 55.8102 47.695C53.4248 49.5722 51.1725 51.7358 49.1841 53.6448L50.5693 55.0875C52.5694 53.1672 54.7518 51.073 57.0471 49.2667C59.3477 47.4562 61.6979 45.9873 64.013 45.2739L63.424 43.3626ZM63.6375 43.2705C63.53 43.3149 63.4321 43.3552 63.3416 43.392L64.0955 45.2445C64.191 45.2057 64.2933 45.1635 64.3998 45.1196L63.6375 43.2705ZM93.7578 53.9036C87.3017 45.2127 80.7887 42.0681 75.2949 41.3843C69.8415 40.7055 65.5606 42.4778 63.6375 43.2705L64.3998 45.1196C66.2796 44.3446 70.1448 42.7587 75.0478 43.369C79.9105 43.9742 85.9641 46.766 92.1523 55.0963L93.7578 53.9036ZM92.3232 55.9861C92.6339 55.8288 92.9019 55.6933 93.0993 55.5872C93.1973 55.5346 93.2935 55.481 93.3758 55.4297C93.4139 55.4061 93.5925 55.2999 93.7289 55.1333L92.1813 53.8665C92.2506 53.7818 92.3144 53.736 92.3168 53.7342C92.3303 53.7241 92.3337 53.7226 92.3195 53.7315C92.2913 53.749 92.239 53.7791 92.1529 53.8253C91.9821 53.917 91.7402 54.0396 91.42 54.2017L92.3232 55.9861Z" fill="url(#paint6_linear)" mask="url(#path-5-inside-1)"/>
<path d="M48.6928 29.7968L48.6932 29.796C50.544 26.1208 53.0773 22.7343 55.7854 20.1263C58.4246 17.5847 61.1923 15.8177 63.6264 15.2066C63.6306 15.2102 63.6348 15.2138 63.639 15.2174C64.7611 16.1742 66.8091 17.9207 68.8394 19.8194C70.9256 21.7704 72.9547 23.8475 73.9567 25.3823C73.8457 26.1287 73.521 27.1869 73.004 28.5112C72.4511 29.9274 71.6947 31.6072 70.7944 33.4643C68.9942 37.1781 66.6335 41.5715 64.2125 45.9312C62.1723 49.6052 60.093 53.2488 58.2746 56.4354C57.9357 57.0292 57.6058 57.6072 57.287 58.1666C55.5194 61.2674 54.0783 63.8155 53.3173 65.3055C51.447 63.9448 49.2898 61.8768 47.4119 59.96C46.4015 58.9288 45.4776 57.9472 44.7285 57.1511L44.6916 57.1118C44.0506 56.4306 43.5308 55.8781 43.2039 55.5599C42.4957 46.4875 45.4213 36.2695 48.6928 29.7968Z" fill="url(#paint7_linear)" stroke="url(#paint8_linear)"/>
<path d="M59.3007 38.622L59.3011 38.6212C61.1486 35.0319 63.6792 31.6299 66.3872 28.9241C68.9315 26.3817 71.6005 24.4853 73.9794 23.6034C74.5286 32.1417 72.1145 41.2838 68.6143 48.4746C66.7596 52.0935 64.3556 55.4707 61.709 58.042C59.1841 60.4951 56.465 62.1904 53.7997 62.701C53.1733 54.4848 56.0662 44.884 59.3007 38.622Z" fill="white" stroke="url(#paint9_linear)"/>
<path d="M93.6435 54.6113C92.9881 55.4106 82.1294 68.6554 82.2483 85.764C82.3847 106.428 96.21 107.129 96.3794 107.129C96.2968 107.649 94.2143 117.979 89.0288 129.835C88.4439 131.231 87.8553 132.625 87.2568 134H11.9682C9.71519 121.562 9.98171 107.109 15.0635 93.4259C19.6003 81.0861 27.8724 70.7597 36.7147 66.6498C40.6084 64.8145 44.343 65.1018 47.6168 65.3536C50.1204 65.5462 52.3545 65.7181 54.1844 64.9041C55.7917 64.1893 57.9631 62.1045 60.4939 59.6746C64.4823 55.8453 69.3634 51.1589 74.3357 49.6267C77.7363 48.2429 87.4132 45.5536 93.6565 54.5953L93.6435 54.6113Z" fill="white"/>
<path d="M87.2568 134C87.8553 132.625 88.4439 131.231 89.0288 129.835C94.2143 117.979 96.2968 107.649 96.3794 107.129C96.21 107.129 82.3847 106.428 82.2483 85.764C82.1294 68.6554 92.9881 55.4106 93.6435 54.6113L93.6565 54.5953C87.4132 45.5536 77.7363 48.2429 74.3357 49.6267C69.3634 51.1589 64.4823 55.8453 60.4939 59.6746C57.9631 62.1045 55.7917 64.1893 54.1844 64.9041C52.3545 65.7181 50.1204 65.5462 47.6168 65.3536C44.343 65.1018 40.6084 64.8145 36.7147 66.6498C27.8724 70.7597 19.6003 81.0861 15.0635 93.4259C9.98171 107.109 9.71519 121.562 11.9682 134" stroke="url(#paint10_linear)"/>
</g>
<defs>
<linearGradient id="paint0_linear" x1="243.234" y1="9.79939" x2="161.517" y2="-48.147" gradientUnits="userSpaceOnUse">
<stop stop-color="#5287FC"/>
<stop offset="1" stop-color="#DD5DFC"/>
</linearGradient>
<linearGradient id="paint1_linear" x1="243.234" y1="9.79939" x2="161.517" y2="-48.147" gradientUnits="userSpaceOnUse">
<stop stop-color="#5287FC"/>
<stop offset="1" stop-color="#DD5DFC"/>
</linearGradient>
<linearGradient id="paint2_linear" x1="239.202" y1="18.061" x2="166.013" y2="-33.9134" gradientUnits="userSpaceOnUse">
<stop stop-color="#5287FC"/>
<stop offset="1" stop-color="#DD5DFC"/>
</linearGradient>
<linearGradient id="paint3_linear" x1="159.663" y1="47.933" x2="159.963" y2="48.1047" gradientUnits="userSpaceOnUse">
<stop stop-color="#5287FC"/>
<stop offset="1" stop-color="#DD5DFC"/>
</linearGradient>
<linearGradient id="paint4_linear" x1="68.2473" y1="-0.454426" x2="68.2124" y2="1.75612" gradientUnits="userSpaceOnUse">
<stop stop-color="#5287FC"/>
<stop offset="1" stop-color="#DD5DFC"/>
</linearGradient>
<linearGradient id="paint5_linear" x1="63.4825" y1="0.530893" x2="-28.7833" y2="59.7961" gradientUnits="userSpaceOnUse">
<stop stop-color="#5287FC"/>
<stop offset="1" stop-color="#DD5DFC"/>
</linearGradient>
<linearGradient id="paint6_linear" x1="63.4825" y1="0.530893" x2="-28.7833" y2="59.7961" gradientUnits="userSpaceOnUse">
<stop stop-color="#5287FC"/>
<stop offset="1" stop-color="#DD5DFC"/>
</linearGradient>
<linearGradient id="paint7_linear" x1="64.3605" y1="-8.04121" x2="24.2268" y2="9.34077" gradientUnits="userSpaceOnUse">
<stop stop-color="#5287FC"/>
<stop offset="1" stop-color="#DD5DFC"/>
</linearGradient>
<linearGradient id="paint8_linear" x1="64.3605" y1="-8.04121" x2="24.2268" y2="9.34077" gradientUnits="userSpaceOnUse">
<stop stop-color="#5287FC"/>
<stop offset="1" stop-color="#DD5DFC"/>
</linearGradient>
<linearGradient id="paint9_linear" x1="67.7823" y1="8.73175" x2="39.7832" y2="20.7125" gradientUnits="userSpaceOnUse">
<stop stop-color="#5287FC"/>
<stop offset="1" stop-color="#DD5DFC"/>
</linearGradient>
<linearGradient id="paint10_linear" x1="69.1874" y1="9.14096" x2="-16.6237" y2="63.5019" gradientUnits="userSpaceOnUse">
<stop stop-color="#5287FC"/>
<stop offset="1" stop-color="#DD5DFC"/>
</linearGradient>
<clipPath id="clip0">
<rect width="960" height="6622" fill="white" transform="translate(-729 -821)"/>
</clipPath>
</defs>
</svg>
