<svg width="1104" height="318" viewBox="0 0 1104 318" fill="none" xmlns="http://www.w3.org/2000/svg">
<rect x="2" y="2" width="1100" height="314" rx="30" stroke="white" stroke-width="4"/>
<path d="M370.632 105.984C366.915 105.984 363.416 105.41 360.136 104.262C356.911 103.059 353.904 101.091 351.116 98.358L356.282 91.88C358.523 93.9573 360.765 95.4607 363.006 96.39C365.247 97.2647 367.762 97.702 370.55 97.702C373.666 97.702 376.263 96.964 378.34 95.488C380.472 93.9573 381.538 91.7433 381.538 88.846C381.538 86.0033 380.499 83.926 378.422 82.614C376.399 81.302 373.42 80.646 369.484 80.646H362.842V73.512H367.844C371.78 73.512 374.595 72.856 376.29 71.544C378.039 70.232 378.914 68.346 378.914 65.886C378.914 63.426 378.067 61.622 376.372 60.474C374.677 59.2713 372.518 58.67 369.894 58.67C367.598 58.67 365.493 59.08 363.58 59.9C361.667 60.6653 359.835 61.7587 358.086 63.18L353.248 56.866C355.38 54.8433 357.895 53.258 360.792 52.11C363.744 50.962 366.86 50.388 370.14 50.388C375.771 50.388 380.171 51.6453 383.342 54.16C386.567 56.62 388.18 60.064 388.18 64.492C388.18 67.2253 387.551 69.6307 386.294 71.708C385.091 73.7853 383.26 75.316 380.8 76.3V76.628C383.697 77.284 386.103 78.7327 388.016 80.974C389.929 83.2153 390.886 86.058 390.886 89.502C390.886 92.1807 390.367 94.5587 389.328 96.636C388.289 98.6587 386.841 100.381 384.982 101.802C383.178 103.169 381.046 104.207 378.586 104.918C376.126 105.629 373.475 105.984 370.632 105.984ZM411.189 105.984C407.635 105.984 404.765 104.918 402.579 102.786C400.392 100.599 399.299 97.7293 399.299 94.176C399.299 92.044 399.736 90.158 400.611 88.518C401.54 86.8233 402.961 85.3747 404.875 84.172C406.843 82.9693 409.303 81.958 412.255 81.138C415.261 80.318 418.842 79.6893 422.997 79.252C422.942 78.2133 422.778 77.2293 422.505 76.3C422.286 75.316 421.876 74.4687 421.275 73.758C420.728 72.9927 419.99 72.4187 419.061 72.036C418.131 71.5987 416.983 71.38 415.617 71.38C413.649 71.38 411.708 71.7627 409.795 72.528C407.936 73.2933 406.105 74.2227 404.301 75.316L400.857 69.002C403.098 67.5807 405.613 66.3507 408.401 65.312C411.189 64.2733 414.195 63.754 417.421 63.754C422.45 63.754 426.195 65.2573 428.655 68.264C431.169 71.216 432.427 75.5073 432.427 81.138V105H424.637L423.981 100.572H423.653C421.849 102.103 419.908 103.387 417.831 104.426C415.808 105.465 413.594 105.984 411.189 105.984ZM414.223 98.604C415.863 98.604 417.339 98.2213 418.651 97.456C420.017 96.6907 421.466 95.5973 422.997 94.176V85.156C420.263 85.484 417.967 85.9213 416.109 86.468C414.25 87.0147 412.747 87.6433 411.599 88.354C410.451 89.01 409.631 89.7753 409.139 90.65C408.647 91.5247 408.401 92.454 408.401 93.438C408.401 95.242 408.947 96.554 410.041 97.374C411.134 98.194 412.528 98.604 414.223 98.604ZM445.352 105V64.738H471.838V72.2H454.782V105H445.352ZM481.586 120.908V64.738H489.376L490.032 69.002H490.36C492.054 67.5807 493.94 66.3507 496.018 65.312C498.095 64.2733 500.254 63.754 502.496 63.754C505.01 63.754 507.224 64.246 509.138 65.23C511.106 66.1593 512.773 67.526 514.14 69.33C515.506 71.134 516.545 73.2933 517.256 75.808C517.966 78.3227 518.322 81.138 518.322 84.254C518.322 87.698 517.83 90.7867 516.846 93.52C515.916 96.1987 514.659 98.4673 513.074 100.326C511.488 102.13 509.657 103.524 507.58 104.508C505.502 105.492 503.343 105.984 501.102 105.984C499.352 105.984 497.603 105.601 495.854 104.836C494.104 104.071 492.41 102.977 490.77 101.556L491.016 108.28V120.908H481.586ZM499.134 98.194C501.812 98.194 504.054 97.046 505.858 94.75C507.662 92.3993 508.564 88.928 508.564 84.336C508.564 80.2907 507.88 77.1473 506.514 74.906C505.147 72.6647 502.933 71.544 499.872 71.544C497.029 71.544 494.077 73.0473 491.016 76.054V94.832C492.492 96.0893 493.913 96.964 495.28 97.456C496.646 97.948 497.931 98.194 499.134 98.194ZM531.736 121.564C530.643 121.564 529.686 121.482 528.866 121.318C528.046 121.209 527.254 121.017 526.488 120.744L528.21 113.364C528.593 113.473 529.03 113.583 529.522 113.692C530.069 113.856 530.588 113.938 531.08 113.938C533.212 113.938 534.907 113.282 536.164 111.97C537.476 110.713 538.46 109.073 539.116 107.05L539.854 104.508L524.028 64.738H533.622L540.592 84.5C541.194 86.2493 541.768 88.108 542.314 90.076C542.916 91.9893 543.517 93.9027 544.118 95.816H544.446C544.938 93.9573 545.43 92.0713 545.922 90.158C546.469 88.19 546.988 86.304 547.48 84.5L553.548 64.738H562.65L548.054 106.804C547.234 109.1 546.332 111.15 545.348 112.954C544.364 114.758 543.216 116.289 541.904 117.546C540.647 118.858 539.171 119.842 537.476 120.498C535.836 121.209 533.923 121.564 531.736 121.564ZM582.043 105.984C579.255 105.984 576.603 105.656 574.089 105C571.629 104.289 569.141 102.977 566.627 101.064L570.481 94.996C572.23 96.3627 574.007 97.3193 575.811 97.866C577.669 98.4127 579.473 98.686 581.223 98.686C583.683 98.686 585.733 98.1667 587.373 97.128C589.067 96.0893 589.915 94.6407 589.915 92.782C589.915 89.2287 587.181 87.452 581.715 87.452H575.729V81.056H580.895C583.464 81.056 585.377 80.6187 586.635 79.744C587.892 78.8147 588.521 77.5573 588.521 75.972C588.521 74.332 587.865 73.102 586.553 72.282C585.295 71.462 583.573 71.052 581.387 71.052C579.309 71.052 577.478 71.298 575.893 71.79C574.307 72.282 572.722 73.0747 571.137 74.168L567.447 68.018C569.524 66.5967 571.738 65.5307 574.089 64.82C576.494 64.1093 579.118 63.754 581.961 63.754C584.038 63.754 586.006 63.9727 587.865 64.41C589.778 64.8473 591.445 65.5307 592.867 66.46C594.343 67.3347 595.491 68.4827 596.311 69.904C597.185 71.3253 597.623 72.9927 597.623 74.906C597.623 76.71 597.076 78.432 595.983 80.072C594.889 81.6573 593.249 82.8327 591.063 83.598V83.926C593.523 84.5273 595.491 85.6207 596.967 87.206C598.497 88.7367 599.263 90.896 599.263 93.684C599.263 95.652 598.771 97.4013 597.787 98.932C596.857 100.463 595.573 101.747 593.933 102.786C592.347 103.825 590.516 104.617 588.439 105.164C586.361 105.711 584.229 105.984 582.043 105.984ZM609.826 105V64.738H619.01V78.596C619.01 80.6733 618.901 82.9967 618.682 85.566C618.518 88.0807 618.354 90.6227 618.19 93.192H618.436C619.147 91.9347 619.994 90.5133 620.978 88.928C621.962 87.288 622.782 85.8667 623.438 84.664L636.23 64.738H644.922V105H635.738V91.142C635.738 89.0647 635.82 86.7687 635.984 84.254C636.203 81.6847 636.421 79.1153 636.64 76.546H636.312C635.601 77.8033 634.754 79.252 633.77 80.892C632.841 82.4773 632.021 83.8713 631.31 85.074L618.518 105H609.826ZM667.326 105V72.2H654.698V64.738H689.466V72.2H676.838V105H667.326ZM715.129 105.984C712.341 105.984 709.744 105.519 707.339 104.59C704.933 103.606 702.829 102.212 701.025 100.408C699.221 98.604 697.799 96.4173 696.761 93.848C695.777 91.224 695.285 88.2447 695.285 84.91C695.285 81.63 695.804 78.678 696.843 76.054C697.881 73.43 699.248 71.216 700.943 69.412C702.692 67.608 704.687 66.214 706.929 65.23C709.17 64.246 711.466 63.754 713.817 63.754C716.55 63.754 718.955 64.2187 721.033 65.148C723.11 66.0773 724.832 67.3893 726.199 69.084C727.62 70.7787 728.686 72.8013 729.397 75.152C730.107 77.5027 730.463 80.072 730.463 82.86C730.463 83.7893 730.408 84.664 730.299 85.484C730.244 86.304 730.162 86.96 730.053 87.452H704.469C704.906 91.06 706.163 93.848 708.241 95.816C710.373 97.7293 713.079 98.686 716.359 98.686C718.108 98.686 719.721 98.44 721.197 97.948C722.727 97.4013 724.231 96.6633 725.707 95.734L728.905 101.638C726.991 102.895 724.859 103.934 722.509 104.754C720.158 105.574 717.698 105.984 715.129 105.984ZM704.387 81.056H722.263C722.263 77.94 721.579 75.5073 720.213 73.758C718.901 71.954 716.851 71.052 714.063 71.052C711.657 71.052 709.553 71.8993 707.749 73.594C705.945 75.2887 704.824 77.776 704.387 81.056ZM759.165 105V64.738H775.483C777.725 64.738 779.775 64.9293 781.633 65.312C783.547 65.64 785.187 66.214 786.553 67.034C787.975 67.854 789.068 68.9473 789.833 70.314C790.653 71.626 791.063 73.2387 791.063 75.152C791.063 77.12 790.489 78.8693 789.341 80.4C788.248 81.876 786.581 82.942 784.339 83.598V83.926C786.745 84.5273 788.74 85.566 790.325 87.042C791.911 88.518 792.703 90.65 792.703 93.438C792.703 95.4607 792.266 97.21 791.391 98.686C790.571 100.107 789.423 101.31 787.947 102.294C786.471 103.223 784.722 103.907 782.699 104.344C780.731 104.781 778.599 105 776.303 105H759.165ZM768.431 81.056H774.581C777.205 81.056 779.091 80.6187 780.239 79.744C781.387 78.8693 781.961 77.6667 781.961 76.136C781.961 74.5507 781.415 73.3207 780.321 72.446C779.228 71.5713 777.397 71.134 774.827 71.134H768.431V81.056ZM768.431 98.604H775.647C778.381 98.604 780.349 98.0847 781.551 97.046C782.809 96.0073 783.437 94.6133 783.437 92.864C783.437 91.224 782.781 89.912 781.469 88.928C780.157 87.944 778.107 87.452 775.319 87.452H768.431V98.604Z" fill="white"/>
<path d="M242.728 157.207C242.488 130.456 264.603 117.442 265.614 116.836C253.089 98.5509 233.677 96.0526 226.855 95.8534C210.551 94.1353 194.736 105.622 186.43 105.622C177.959 105.622 165.169 96.0194 151.385 96.3016C133.646 96.5755 117.052 106.859 107.951 122.828C89.1683 155.389 103.176 203.239 121.172 229.558C130.173 242.448 140.692 256.84 154.46 256.334C167.929 255.778 172.961 247.735 189.215 247.735C205.32 247.735 210.045 256.334 224.087 256.01C238.542 255.778 247.644 243.062 256.33 230.056C266.733 215.282 270.91 200.732 271.076 199.985C270.736 199.869 243.002 189.27 242.728 157.207Z" fill="white"/>
<path d="M216.203 78.5398C223.448 69.4679 228.405 57.1258 227.029 44.6011C216.543 45.0659 203.43 51.8636 195.879 60.7363C189.198 68.5549 183.23 81.3701 184.772 93.4217C196.55 94.3015 208.644 87.4706 216.203 78.5398Z" fill="white"/>
<path d="M437.657 254.483H418.833L408.521 222.038H372.68L362.858 254.483H344.531L380.041 144.027H401.973L437.657 254.483ZM405.413 208.426L396.088 179.584C395.102 176.637 393.253 169.699 390.526 158.776H390.195C389.109 163.474 387.36 170.412 384.956 179.584L375.797 208.426H405.413Z" fill="white"/>
<path d="M528.975 213.68C528.975 227.226 525.32 237.933 518.009 245.793C511.461 252.79 503.33 256.284 493.623 256.284C483.146 256.284 475.62 252.516 471.036 244.98H470.705V286.936H453.033V201.056C453.033 192.54 452.809 183.8 452.378 174.836H467.919L468.906 187.461H469.237C475.131 177.949 484.075 173.201 496.077 173.201C505.46 173.201 513.293 176.911 519.559 184.34C525.842 191.777 528.975 201.554 528.975 213.68ZM510.972 214.328C510.972 206.576 509.231 200.185 505.733 195.155C501.912 189.909 496.781 187.286 490.349 187.286C485.989 187.286 482.027 188.747 478.488 191.627C474.94 194.532 472.619 198.325 471.533 203.023C470.986 205.214 470.713 207.007 470.713 208.418V221.698C470.713 227.492 472.487 232.38 476.034 236.373C479.582 240.365 484.191 242.357 489.86 242.357C496.516 242.357 501.697 239.784 505.402 234.655C509.115 229.517 510.972 222.744 510.972 214.328Z" fill="white"/>
<path d="M620.461 213.68C620.461 227.226 616.805 237.933 609.486 245.793C602.946 252.79 594.815 256.284 585.108 256.284C574.631 256.284 567.105 252.516 562.529 244.98H562.198V286.936H544.526V201.056C544.526 192.54 544.302 183.8 543.871 174.836H559.413L560.399 187.461H560.731C566.616 177.949 575.56 173.201 587.57 173.201C596.945 173.201 604.778 176.911 611.061 184.34C617.319 191.777 620.461 201.554 620.461 213.68ZM602.457 214.328C602.457 206.576 600.708 200.185 597.21 195.155C593.389 189.909 588.275 187.286 581.834 187.286C577.466 187.286 573.512 188.747 569.965 191.627C566.417 194.532 564.104 198.325 563.019 203.023C562.48 205.214 562.198 207.007 562.198 208.418V221.698C562.198 227.492 563.972 232.38 567.503 236.373C571.05 240.357 575.659 242.357 581.345 242.357C588.001 242.357 593.182 239.784 596.887 234.655C600.6 229.517 602.457 222.744 602.457 214.328Z" fill="white"/>
<path d="M722.745 223.508C722.745 232.903 719.488 240.547 712.948 246.449C705.761 252.898 695.757 256.118 682.901 256.118C671.031 256.118 661.515 253.827 654.312 249.238L658.407 234.488C666.165 239.186 674.678 241.543 683.953 241.543C690.609 241.543 695.79 240.033 699.512 237.028C703.217 234.024 705.065 229.99 705.065 224.96C705.065 220.478 703.54 216.702 700.481 213.639C697.439 210.576 692.358 207.729 685.263 205.098C665.95 197.885 656.302 187.32 656.302 173.425C656.302 164.345 659.683 156.9 666.456 151.107C673.203 145.305 682.204 142.408 693.461 142.408C703.499 142.408 711.837 144.16 718.493 147.654L714.075 162.079C707.858 158.693 700.83 157 692.963 157C686.747 157 681.889 158.535 678.408 161.59C675.466 164.32 673.99 167.649 673.99 171.591C673.99 175.957 675.673 179.567 679.055 182.406C681.997 185.029 687.344 187.867 695.102 190.93C704.593 194.756 711.564 199.23 716.048 204.359C720.516 209.472 722.745 215.872 722.745 223.508Z" fill="white"/>
<path d="M781.173 188.116H761.694V226.786C761.694 236.621 765.126 241.535 772.006 241.535C775.164 241.535 777.783 241.261 779.855 240.713L780.344 254.151C776.863 255.454 772.279 256.11 766.601 256.11C759.622 256.11 754.168 253.977 750.231 249.719C746.31 245.453 744.337 238.298 744.337 228.247V188.1H732.733V174.82H744.337V160.237L761.694 154.991V174.82H781.173V188.116Z" fill="white"/>
<path d="M869.061 214.004C869.061 226.246 865.563 236.298 858.584 244.158C851.265 252.25 841.55 256.284 829.44 256.284C817.769 256.284 808.477 252.408 801.548 244.656C794.618 236.904 791.154 227.118 791.154 215.324C791.154 202.982 794.718 192.872 801.871 185.012C809.008 177.144 818.64 173.209 830.75 173.209C842.42 173.209 851.812 177.086 858.899 184.846C865.679 192.374 869.061 202.093 869.061 214.004ZM850.726 214.577C850.726 207.231 849.159 200.931 845.985 195.678C842.28 189.32 836.983 186.149 830.12 186.149C823.016 186.149 817.62 189.328 813.915 195.678C810.74 200.94 809.174 207.339 809.174 214.909C809.174 222.254 810.74 228.554 813.915 233.799C817.736 240.157 823.074 243.328 829.962 243.328C836.709 243.328 842.006 240.091 845.827 233.633C849.085 228.28 850.726 221.914 850.726 214.577Z" fill="white"/>
<path d="M926.502 190.399C924.753 190.075 922.888 189.909 920.932 189.909C914.715 189.909 909.907 192.258 906.525 196.964C903.583 201.114 902.108 206.36 902.108 212.693V254.483H884.444L884.61 199.919C884.61 190.739 884.386 182.381 883.947 174.845H899.339L899.986 190.084H900.475C902.34 184.846 905.282 180.63 909.311 177.468C913.248 174.621 917.5 173.201 922.084 173.201C923.717 173.201 925.192 173.318 926.502 173.525V190.399Z" fill="white"/>
<path d="M1005.54 210.892C1005.54 214.062 1005.33 216.735 1004.89 218.918H951.875C952.082 226.786 954.643 232.804 959.567 236.954C964.035 240.664 969.812 242.523 976.907 242.523C984.757 242.523 991.918 241.27 998.359 238.755L1001.13 251.039C993.601 254.325 984.715 255.961 974.462 255.961C962.128 255.961 952.447 252.325 945.401 245.063C938.372 237.8 934.849 228.048 934.849 215.813C934.849 203.803 938.124 193.802 944.68 185.826C951.543 177.31 960.819 173.052 972.489 173.052C983.953 173.052 992.631 177.31 998.525 185.826C1003.19 192.59 1005.54 200.956 1005.54 210.892ZM988.686 206.302C988.802 201.056 987.65 196.524 985.254 192.698C982.196 187.776 977.496 185.319 971.171 185.319C965.394 185.319 960.694 187.718 957.105 192.532C954.163 196.358 952.414 200.948 951.875 206.293H988.686V206.302Z" fill="white"/>
</svg>
