<svg width="133" height="167" viewBox="0 0 133 167" fill="none" xmlns="http://www.w3.org/2000/svg">
<path d="M7.15019 121.2C6.44153 125.46 7.50452 130.076 10.3392 132.916C13.5281 135.756 18.8431 136.111 21.6778 132.916" stroke="white" stroke-miterlimit="10"/>
<path d="M36 31.7158C27.8504 31.7158 7.16929 29.7662 1.5 26.2158" stroke="white" stroke-miterlimit="10"/>
<path d="M127.267 80.7248C123.37 78.5945 115.22 75.0441 110.968 74.334C107.07 73.624 102.464 73.624 99.6294 70.4286C97.8578 68.6534 97.1491 66.1681 96.0861 64.0378C90.4168 49.1261 79.7869 44.5105 66.6767 35.6345C64.905 34.5693 47.8972 5.81092 42.5822 0.840332C35.8499 12.2017 34.0783 26.0483 38.3302 38.4748C31.2436 37.7647 28.0546 38.1197 24.8657 40.25" stroke="white" stroke-miterlimit="10"/>
<path d="M2.18858 97.4118C1.47992 101.317 0.771258 105.578 1.12559 109.483C1.47992 113.389 3.25157 117.649 6.44055 120.135C8.56653 121.91 11.4012 122.62 13.5272 124.75C16.0075 126.88 17.0705 129.721 19.1965 132.206C23.8028 137.177 31.2437 138.952 37.976 138.597C40.8106 138.597 44.7083 137.177 44.3539 134.336C56.4012 135.756 69.8658 137.177 80.4957 131.141C87.9366 126.88 93.2516 119.069 94.3146 110.193L95.0232 108.773C106.362 102.382 117.7 96.3467 129.039 89.9559C130.811 88.8908 132.582 87.8257 132.582 85.6954C132.582 83.2101 129.748 81.79 127.622 81.0799C114.511 77.5294 100.338 76.1093 86.8736 76.8194" stroke="white" stroke-miterlimit="10"/>
<path d="M24.8667 98.4768C23.095 104.513 20.2604 110.548 15.6541 114.809C16.717 117.649 16.717 120.844 15.6541 123.685C19.1974 124.04 22.7407 124.04 26.284 124.395C26.9926 123.33 28.7643 121.555 29.473 120.844C31.9533 118.359 34.4336 116.229 36.9139 114.099" stroke="white" stroke-miterlimit="10"/>
<path d="M24.5123 131.851C29.8273 138.952 30.1816 154.218 30.1816 162.739" stroke="white" stroke-miterlimit="10"/>
<path d="M30.5352 130.431C39.0391 145.697 40.1021 161.319 41.1651 166.645" stroke="white" stroke-miterlimit="10"/>
<path d="M36.2047 130.431C40.4567 135.401 54.9842 161.319 56.0472 164.87" stroke="white" stroke-miterlimit="10"/>
<path d="M25.6022 88.7785C29.1646 87.1541 30.2783 81.9309 28.0898 77.112C25.9013 72.2932 21.2393 69.7035 17.677 71.3279C14.1146 72.9522 13.0008 78.1755 15.1893 82.9943C17.3778 87.8132 22.0398 90.4028 25.6022 88.7785Z" stroke="white" stroke-miterlimit="10"/>
<path d="M66.4847 112.297C67.2307 108.447 63.6306 104.508 58.4436 103.499C53.2566 102.49 48.447 104.793 47.701 108.643C46.955 112.493 50.5552 116.432 55.7422 117.441C60.9291 118.45 65.7388 116.147 66.4847 112.297Z" stroke="white" stroke-miterlimit="10"/>
<path d="M24.8659 77.8845L18.1336 81.0799" stroke="white" stroke-miterlimit="10"/>
<path d="M58.1735 106.288L56.0475 114.099" stroke="white" stroke-miterlimit="10"/>
<path d="M15.6541 114.809C19.906 116.939 22.032 118.004 26.284 124.395" stroke="white" stroke-miterlimit="10"/>
</svg>
