<svg width="1104" height="318" viewBox="0 0 1104 318" fill="none" xmlns="http://www.w3.org/2000/svg">
<rect x="2" y="2" width="1100" height="314" rx="30" stroke="black" stroke-width="4"/>
<path d="M559.486 184.634C540.268 184.634 524.57 199.361 524.57 219.538C524.57 239.62 540.268 254.443 559.486 254.443C578.704 254.443 594.402 239.62 594.402 219.538C594.402 199.361 578.704 184.634 559.486 184.634ZM559.486 240.768C548.925 240.768 539.887 232.066 539.887 219.538C539.887 206.915 549.021 198.309 559.486 198.309C569.951 198.309 579.085 206.915 579.085 219.538C579.18 232.066 570.047 240.768 559.486 240.768ZM483.374 184.634C464.156 184.634 448.458 199.361 448.458 219.538C448.458 239.62 464.156 254.443 483.374 254.443C502.592 254.443 518.29 239.62 518.29 219.538C518.29 199.361 502.592 184.634 483.374 184.634ZM483.374 240.768C472.813 240.768 463.775 232.066 463.775 219.538C463.775 206.915 472.909 198.309 483.374 198.309C493.935 198.309 502.973 206.915 502.973 219.538C502.973 232.066 493.935 240.768 483.374 240.768ZM392.801 195.344V210.167H428.098C427.051 218.486 424.292 224.607 420.106 228.814C414.968 233.978 406.977 239.716 392.801 239.716C371.109 239.716 354.079 222.12 354.079 200.221C354.079 178.322 371.109 160.727 392.801 160.727C404.503 160.727 413.065 165.317 419.44 171.342L429.81 160.918C420.962 152.407 409.26 146 392.801 146C363.022 146 338 170.385 338 200.317C338 230.249 363.022 254.634 392.801 254.634C408.879 254.634 420.962 249.374 430.476 239.429C440.18 229.675 443.225 215.904 443.225 204.716C443.225 201.273 442.939 198.117 442.464 195.44H392.801V195.344ZM763.181 206.915C760.327 199.074 751.479 184.634 733.402 184.634C715.516 184.634 700.579 198.787 700.579 219.538C700.579 239.142 715.325 254.443 735.115 254.443C751.098 254.443 760.231 244.689 764.132 238.951L752.24 231.014C748.244 236.847 742.916 240.672 735.115 240.672C727.313 240.672 721.795 237.134 718.275 230.057L764.798 210.74L763.181 206.915ZM715.801 218.582C715.421 205.098 726.171 198.213 733.973 198.213C740.062 198.213 745.199 201.273 746.912 205.672L715.801 218.582ZM678.03 252.434H693.348V149.73H678.03V252.434ZM653.009 192.475H652.438C649.013 188.363 642.448 184.634 634.171 184.634C616.76 184.634 600.872 200.03 600.872 219.73C600.872 239.333 616.855 254.538 634.171 254.538C642.448 254.538 649.013 250.809 652.438 246.601H653.009V251.669C653.009 265.057 645.873 272.23 634.456 272.23C625.133 272.23 619.329 265.44 616.951 259.798L603.631 265.344C607.437 274.62 617.617 286 634.456 286C652.343 286 667.565 275.385 667.565 249.566V186.833H653.104V192.475H653.009ZM635.503 240.768C624.942 240.768 616.094 231.874 616.094 219.73C616.094 207.393 624.942 198.404 635.503 198.404C645.873 198.404 654.055 207.393 654.055 219.73C654.055 231.874 645.873 240.768 635.503 240.768ZM834.821 149.73H798.288V252.434H813.51V213.514H834.821C851.756 213.514 868.311 201.178 868.311 181.574C868.311 161.97 851.661 149.73 834.821 149.73ZM835.202 199.265H813.51V164.074H835.202C846.619 164.074 853.088 173.541 853.088 181.669C853.088 189.607 846.619 199.265 835.202 199.265ZM929.486 184.443C918.449 184.443 907.033 189.32 902.276 200.126L915.785 205.768C918.64 200.126 924.063 198.213 929.771 198.213C937.668 198.213 945.659 202.995 945.85 211.41V212.462C943.091 210.836 937.192 208.541 929.961 208.541C915.405 208.541 900.468 216.574 900.468 231.683C900.468 245.454 912.456 254.251 925.87 254.251C936.145 254.251 941.759 249.661 945.374 244.21H945.945V252.148H960.692V212.749C960.501 194.675 946.991 184.443 929.486 184.443ZM927.583 240.768C922.54 240.768 915.595 238.281 915.595 232.066C915.595 224.128 924.253 221.068 931.769 221.068C938.429 221.068 941.664 222.503 945.755 224.511C944.613 234.074 936.431 240.768 927.583 240.768ZM1014.16 186.738L996.654 231.301H996.084L977.912 186.738H961.453L988.663 248.992L973.155 283.609H989.043L1031 186.738H1014.16ZM876.778 252.434H892V149.73H876.778V252.434Z" fill="black"/>
<path d="M355.906 105V120.416H347.46L346.558 102.868V96.964H349.018C349.619 96.7453 350.221 96.2807 350.822 95.57C351.478 94.8593 352.107 93.766 352.708 92.29C353.364 90.814 354.02 88.928 354.676 86.632C355.332 84.336 355.988 81.4933 356.644 78.104C357.136 75.5893 357.546 73.2933 357.874 71.216C358.257 69.1387 358.612 67.0887 358.94 65.066C359.323 62.9887 359.678 60.884 360.006 58.752C360.389 56.5653 360.799 54.1053 361.236 51.372H390.756V96.964H397.07V102.868L396.168 120.416H387.722V105H355.906ZM365.172 79.416C363.696 87.288 361.783 93.1373 359.432 96.964H381.244V59.408H368.616C368.288 61.3213 367.987 63.098 367.714 64.738C367.441 66.3233 367.167 67.8813 366.894 69.412C366.675 70.9427 366.429 72.5007 366.156 74.086C365.883 75.6713 365.555 77.448 365.172 79.416ZM423.721 105.984C421.207 105.984 418.801 105.519 416.505 104.59C414.209 103.661 412.159 102.294 410.355 100.49C408.606 98.686 407.212 96.472 406.173 93.848C405.135 91.224 404.615 88.2447 404.615 84.91C404.615 81.5753 405.135 78.596 406.173 75.972C407.212 73.348 408.606 71.134 410.355 69.33C412.159 67.526 414.209 66.1593 416.505 65.23C418.801 64.246 421.207 63.754 423.721 63.754C426.236 63.754 428.641 64.246 430.937 65.23C433.288 66.1593 435.338 67.526 437.087 69.33C438.837 71.134 440.231 73.348 441.269 75.972C442.363 78.596 442.909 81.5753 442.909 84.91C442.909 88.2447 442.363 91.224 441.269 93.848C440.231 96.472 438.837 98.686 437.087 100.49C435.338 102.294 433.288 103.661 430.937 104.59C428.641 105.519 426.236 105.984 423.721 105.984ZM423.721 98.276C426.673 98.276 428.997 97.0733 430.691 94.668C432.386 92.208 433.233 88.9553 433.233 84.91C433.233 80.81 432.386 77.5573 430.691 75.152C428.997 72.692 426.673 71.462 423.721 71.462C420.769 71.462 418.446 72.692 416.751 75.152C415.111 77.5573 414.291 80.81 414.291 84.91C414.291 88.9553 415.111 92.208 416.751 94.668C418.446 97.0733 420.769 98.276 423.721 98.276ZM470.693 105.984C467.96 105.984 465.391 105.519 462.985 104.59C460.635 103.661 458.585 102.294 456.835 100.49C455.086 98.686 453.719 96.472 452.735 93.848C451.751 91.224 451.259 88.2447 451.259 84.91C451.259 81.5753 451.806 78.596 452.899 75.972C453.993 73.348 455.469 71.134 457.327 69.33C459.186 67.526 461.318 66.1593 463.723 65.23C466.183 64.246 468.753 63.754 471.431 63.754C474.055 63.754 476.297 64.1913 478.155 65.066C480.069 65.9407 481.763 67.0067 483.239 68.264L478.647 74.414C477.554 73.4847 476.461 72.774 475.367 72.282C474.329 71.7353 473.181 71.462 471.923 71.462C468.643 71.462 465.992 72.692 463.969 75.152C461.947 77.5573 460.935 80.81 460.935 84.91C460.935 88.9553 461.919 92.208 463.887 94.668C465.91 97.0733 468.507 98.276 471.677 98.276C473.263 98.276 474.739 97.948 476.105 97.292C477.527 96.5813 478.811 95.7613 479.959 94.832L483.813 101.064C481.9 102.704 479.795 103.934 477.499 104.754C475.258 105.574 472.989 105.984 470.693 105.984ZM501.373 105V72.2H488.745V64.738H523.513V72.2H510.885V105H501.373ZM535.943 121.564C534.85 121.564 533.893 121.482 533.073 121.318C532.253 121.209 531.461 121.017 530.695 120.744L532.417 113.364C532.8 113.473 533.237 113.583 533.729 113.692C534.276 113.856 534.795 113.938 535.287 113.938C537.419 113.938 539.114 113.282 540.371 111.97C541.683 110.713 542.667 109.073 543.323 107.05L544.061 104.508L528.235 64.738H537.829L544.799 84.5C545.401 86.2493 545.975 88.108 546.521 90.076C547.123 91.9893 547.724 93.9027 548.325 95.816H548.653C549.145 93.9573 549.637 92.0713 550.129 90.158C550.676 88.19 551.195 86.304 551.687 84.5L557.755 64.738H566.857L552.261 106.804C551.441 109.1 550.539 111.15 549.555 112.954C548.571 114.758 547.423 116.289 546.111 117.546C544.854 118.858 543.378 119.842 541.683 120.498C540.043 121.209 538.13 121.564 535.943 121.564ZM575.477 105V64.738H609.671V105H600.241V72.2H584.907V105H575.477ZM623.402 105V64.738H632.832V80.154H648.904V64.738H658.334V105H648.904V88.436H632.832V105H623.402ZM688.45 105.984C685.935 105.984 683.53 105.519 681.234 104.59C678.938 103.661 676.888 102.294 675.084 100.49C673.335 98.686 671.941 96.472 670.902 93.848C669.863 91.224 669.344 88.2447 669.344 84.91C669.344 81.5753 669.863 78.596 670.902 75.972C671.941 73.348 673.335 71.134 675.084 69.33C676.888 67.526 678.938 66.1593 681.234 65.23C683.53 64.246 685.935 63.754 688.45 63.754C690.965 63.754 693.37 64.246 695.666 65.23C698.017 66.1593 700.067 67.526 701.816 69.33C703.565 71.134 704.959 73.348 705.998 75.972C707.091 78.596 707.638 81.5753 707.638 84.91C707.638 88.2447 707.091 91.224 705.998 93.848C704.959 96.472 703.565 98.686 701.816 100.49C700.067 102.294 698.017 103.661 695.666 104.59C693.37 105.519 690.965 105.984 688.45 105.984ZM688.45 98.276C691.402 98.276 693.725 97.0733 695.42 94.668C697.115 92.208 697.962 88.9553 697.962 84.91C697.962 80.81 697.115 77.5573 695.42 75.152C693.725 72.692 691.402 71.462 688.45 71.462C685.498 71.462 683.175 72.692 681.48 75.152C679.84 77.5573 679.02 80.81 679.02 84.91C679.02 88.9553 679.84 92.208 681.48 94.668C683.175 97.0733 685.498 98.276 688.45 98.276ZM736.668 105V64.738H752.986C755.227 64.738 757.277 64.9293 759.136 65.312C761.049 65.64 762.689 66.214 764.056 67.034C765.477 67.854 766.571 68.9473 767.336 70.314C768.156 71.626 768.566 73.2387 768.566 75.152C768.566 77.12 767.992 78.8693 766.844 80.4C765.751 81.876 764.083 82.942 761.842 83.598V83.926C764.247 84.5273 766.243 85.566 767.828 87.042C769.413 88.518 770.206 90.65 770.206 93.438C770.206 95.4607 769.769 97.21 768.894 98.686C768.074 100.107 766.926 101.31 765.45 102.294C763.974 103.223 762.225 103.907 760.202 104.344C758.234 104.781 756.102 105 753.806 105H736.668ZM745.934 81.056H752.084C754.708 81.056 756.594 80.6187 757.742 79.744C758.89 78.8693 759.464 77.6667 759.464 76.136C759.464 74.5507 758.917 73.3207 757.824 72.446C756.731 71.5713 754.899 71.134 752.33 71.134H745.934V81.056ZM745.934 98.604H753.15C755.883 98.604 757.851 98.0847 759.054 97.046C760.311 96.0073 760.94 94.6133 760.94 92.864C760.94 91.224 760.284 89.912 758.972 88.928C757.66 87.944 755.61 87.452 752.822 87.452H745.934V98.604Z" fill="black"/>
<path fill-rule="evenodd" clip-rule="evenodd" d="M84.403 58.3872L186.148 159.463L84.6349 260.308C82.691 257.761 81.5488 254.163 81.5488 249.651V68.7597C81.5488 64.4307 82.6005 60.8728 84.403 58.3872ZM88.1792 55.0907C91.8983 53.2621 96.8386 53.6745 102.293 56.7701L220.959 124.134L221.047 124.045L221.509 124.334L189.695 155.939L88.1792 55.0907ZM226.009 126.912L193.243 159.463L225.497 191.505L261.774 170.862C273.193 164.392 273.193 153.734 261.774 147.263L226.009 126.912ZM221.047 194.132L189.695 162.987L88.627 263.39C92.303 265.025 97.1044 264.545 102.388 261.546L221.047 194.132Z" fill="black"/>
</svg>
