<svg width="161" height="203" viewBox="0 0 161 203" fill="none" xmlns="http://www.w3.org/2000/svg">
<g clip-path="url(#clip0)">
<rect width="1440" height="5814" transform="translate(-1201 -2871)" fill="white"/>
<path d="M95.8526 26.8482L96.0687 27.2101L96.3376 27.2169L108.832 27.5358L115.43 45.4032L115.572 45.7878L115.868 45.9132L129.595 51.7399L132.109 68.9151L132.163 69.2849L132.456 69.5166L146.073 80.2807L144.256 95.0827L144.216 95.4013L144.479 95.7166L156.653 110.365L150.682 121.344L150.553 121.581L150.759 121.949L160.298 139.047L150.759 145.129L150.553 145.26L150.682 145.645L156.653 163.519L144.478 164.109L144.216 164.122L144.256 164.486L146.073 181.387L132.456 176.427L132.163 176.32L132.109 176.627L129.595 190.9L115.868 180.876L115.572 180.66L115.43 180.88L108.832 191.129L96.3376 177.021L96.0686 176.717L95.8526 176.829L85.8151 182.05L75.7776 165.239L75.5615 164.877L75.2926 164.87L62.7985 164.552L56.2002 146.684L56.0581 146.299L55.7626 146.174L42.0349 140.347L39.5216 123.172L39.4675 122.802L39.1744 122.571L25.5568 111.807L27.3746 97.0046L27.4138 96.686L27.1517 96.3707L14.9772 81.7227L20.9482 70.743L21.0767 70.5067L20.8714 70.1386L11.3318 53.0407L20.8714 46.9581L21.0767 46.8271L20.9482 46.4424L14.9772 28.5681L27.1517 27.9779L27.4138 27.9652L27.3746 27.6014L25.5568 10.7005L39.1744 15.6605L39.4675 15.7673L39.5216 15.4601L42.0349 1.18683L55.7626 11.2116L56.0581 11.4274L56.2002 11.2068L62.7985 0.958451L75.2926 15.0666L75.5615 15.3703L75.7776 15.2579L85.8151 10.0377L95.8526 26.8482Z" stroke="url(#paint0_linear)"/>
<path d="M75.0807 20.0818L85.4165 37.3919L98.2819 37.7202L105.076 56.1186L119.212 62.1184L121.8 79.8041L135.822 90.8882L133.95 106.13L146.487 121.213L140.338 132.519L150.161 150.125L140.338 156.389L146.487 174.794L133.95 175.402L135.822 192.805L121.8 187.698L119.212 202.395L105.076 192.072L98.2819 202.625L85.4165 188.098L75.0807 193.473L64.7449 176.163L51.8795 175.835L45.0851 157.436L30.9494 151.437L28.3614 133.751L14.3391 122.667L16.211 107.425L3.67471 92.3417L9.82313 81.0358L-1.90995e-06 63.4296L9.82313 57.1663L3.67471 38.7608L16.211 38.1531L14.3391 20.7499L28.3614 25.8574L30.9494 11.1599L45.0851 21.4826L51.8795 10.9297L64.7449 25.4572L75.0807 20.0818Z" fill="url(#paint1_linear)"/>
<path d="M55.9138 62.0017L49.4965 58.2967L48.1143 61.0517L46.8473 60.3202L52.1128 50.0602L53.314 50.7537L58.5794 67.0937L57.2959 66.3527L55.9138 62.0017ZM55.4695 60.6052L52.7051 51.8652L49.9408 57.4132L55.4695 60.6052ZM71.399 73.279L71.399 77.478L70.2636 76.8225L70.2636 73.8395L60.2099 68.035L60.1935 71.0085L59.0581 70.353L59.0746 66.1635L59.6505 66.496C60.4074 66.8824 60.9339 66.496 61.2301 65.337C61.5263 64.1654 61.7073 62.3699 61.7731 59.9505L61.9047 55.7135L69.6713 60.1975L69.6713 72.2815L71.399 73.279ZM62.8591 60.7105C62.8043 62.7055 62.6671 64.2984 62.4477 65.489C62.2393 66.6734 61.8828 67.3415 61.3782 67.4935L68.4701 71.588L68.4701 60.72L62.9578 57.5375L62.8591 60.7105ZM81.2865 76.6506L74.8692 72.9456L73.487 75.7006L72.22 74.9691L77.4855 64.7091L78.6866 65.4026L83.9521 81.7426L82.6686 81.0016L81.2865 76.6506ZM80.8422 75.2541L78.0778 66.5141L75.3135 72.0621L80.8422 75.2541ZM95.851 75.3124L95.851 88.6124L94.6498 87.9189L94.6498 75.8349L87.3605 71.6264L87.3605 83.7104L86.1593 83.0169L86.1593 69.7169L95.851 75.3124ZM98.7831 84.5673L103.094 87.0563L103.094 88.2343L98.7831 85.7453L98.7831 84.5673ZM48.7509 72.3352L44.7031 69.9982L44.7031 82.0822L43.5019 81.3887L43.5019 69.3047L39.4541 66.9677L39.4541 65.7517L48.7509 71.1192L48.7509 72.3352ZM50.8882 72.3531L52.0894 73.0466L52.0894 84.0667L59.461 77.3026L60.5634 77.9391L60.5634 91.2392L59.3623 90.5457L59.3623 79.5446L51.9907 86.2897L50.8882 85.6532L50.8882 72.3531ZM68.7614 82.6722C70.2313 83.5209 71.3831 84.5912 72.2168 85.8832C73.0505 87.1752 73.4674 88.5306 73.4674 89.9492C73.4674 91.3679 73.0505 92.2419 72.2168 92.5712C71.3831 92.8879 70.2313 92.6219 68.7614 91.7732L65.6679 89.9872L65.6679 94.1862L64.4503 93.4832L64.4503 80.1832L68.7614 82.6722ZM68.7285 90.5192C69.8693 91.1779 70.7414 91.3964 71.3447 91.1747C71.9481 90.9404 72.2497 90.2976 72.2497 89.2462C72.2497 88.1696 71.9481 87.1721 71.3447 86.2537C70.7414 85.3227 69.8693 84.5279 68.7285 83.8692L65.6679 82.1022L65.6679 88.7522L68.7285 90.5192ZM84.7645 91.9116L79.532 100.082C79.159 100.664 78.7202 101.006 78.2156 101.108C77.722 101.203 77.179 101.079 76.5866 100.737C76.1479 100.484 75.6762 100.091 75.1716 99.5591L75.5171 98.6186C75.912 99.024 76.274 99.3216 76.6031 99.5116C77.36 99.9486 77.9798 99.8315 78.4625 99.1601L78.7915 98.7041L74.1185 85.7651L75.4184 86.5156L79.4333 97.8396L83.5469 91.2086L84.7645 91.9116ZM94.8024 109.791L94.8024 111.007L86.6574 106.305L86.6574 93.0045L94.5556 97.5645L94.5556 98.7805L87.8751 94.9235L87.8751 99.6545L93.8316 103.094L93.8316 104.291L87.8751 100.852L87.8751 105.792L94.8024 109.791ZM109.466 106.173L109.466 119.473L108.298 118.799L108.298 108.159L103.773 114.495L103.197 114.163L98.6722 102.658L98.6722 113.241L97.5039 112.567L97.5039 99.2667L98.5076 99.8462L103.51 112.595L108.463 105.594L109.466 106.173ZM37.7863 87.7887L37.7863 101.089L36.5851 100.395L36.5851 88.3112L29.2957 84.1027L29.2957 96.1867L28.0946 95.4932L28.0946 82.1932L37.7863 87.7887ZM46.7243 106.363C45.5834 105.704 44.5468 104.815 43.6144 103.694C42.6929 102.566 41.9689 101.338 41.4424 100.008C40.9268 98.6839 40.669 97.3824 40.669 96.1031C40.669 94.8238 40.9268 93.8199 41.4424 93.0916C41.9689 92.3696 42.6929 91.9833 43.6144 91.9326C44.5468 91.8756 45.5834 92.1764 46.7243 92.8351C47.8651 93.4938 48.8908 94.3773 49.8012 95.4856C50.7227 96.6003 51.4467 97.8289 51.9732 99.1716C52.4998 100.502 52.7631 101.806 52.7631 103.086C52.7631 104.365 52.4998 105.372 51.9732 106.107C51.4467 106.829 50.7227 107.215 49.8012 107.266C48.8908 107.323 47.8651 107.022 46.7243 106.363ZM46.7243 105.109C47.6347 105.635 48.4575 105.875 49.1924 105.831C49.9274 105.774 50.5033 105.448 50.9202 104.853C51.337 104.245 51.5454 103.421 51.5454 102.383C51.5454 101.344 51.337 100.286 50.9202 99.2096C50.5033 98.1203 49.9274 97.1291 49.1924 96.2361C48.4575 95.3304 47.6347 94.6148 46.7243 94.0891C45.8138 93.5634 44.9856 93.3259 44.2396 93.3766C43.5047 93.4209 42.9233 93.7439 42.4955 94.3456C42.0786 94.9409 41.8702 95.7579 41.8702 96.7966C41.8702 97.8353 42.0786 98.8993 42.4955 99.9886C42.9233 101.072 43.5047 102.066 44.2396 102.972C44.9856 103.871 45.8138 104.583 46.7243 105.109ZM65.9275 116.12L65.9275 120.319L64.7922 119.664L64.7922 116.681L54.7385 110.876L54.722 113.85L53.5867 113.194L53.6031 109.005L54.179 109.337C54.9359 109.723 55.4625 109.337 55.7587 108.178C56.0549 107.006 56.2359 105.211 56.3017 102.792L56.4333 98.5546L64.1998 103.039L64.1998 115.123L65.9275 116.12ZM57.3877 103.552C57.3328 105.547 57.1957 107.139 56.9763 108.33C56.7679 109.514 56.4114 110.183 55.9068 110.335L62.9986 114.429L62.9986 103.561L57.4864 100.379L57.3877 103.552ZM79.5463 118.34C80.3471 118.992 80.9559 119.717 81.3728 120.515C81.7896 121.301 81.998 122.137 81.998 123.023C81.998 124.176 81.6415 124.857 80.9285 125.066C80.2264 125.281 79.1898 124.993 77.8186 124.201L72.7177 121.256L72.7177 107.956L77.506 110.721C78.7346 111.43 79.6944 112.276 80.3855 113.257C81.0766 114.239 81.4221 115.281 81.4221 116.383C81.4221 117.13 81.2576 117.669 80.9285 117.998C80.5994 118.315 80.1387 118.429 79.5463 118.34ZM73.9189 114.673L77.4402 116.706C78.3287 117.219 79.0088 117.403 79.4805 117.257C79.9632 117.118 80.2045 116.649 80.2045 115.851C80.2045 115.053 79.9632 114.306 79.4805 113.609C79.0088 112.919 78.3287 112.317 77.4402 111.804L73.9189 109.771L73.9189 114.673ZM77.8186 123.08C79.8041 124.227 80.7969 123.945 80.7969 122.235C80.7969 120.563 79.8041 119.154 77.8186 118.007L73.9189 115.756L73.9189 120.829L77.8186 123.08ZM92.4141 129.075L85.9969 125.37L84.6147 128.125L83.3477 127.394L88.6131 117.134L89.8143 117.827L95.0797 134.167L93.7963 133.426L92.4141 129.075ZM91.9698 127.679L89.2055 118.939L86.4411 124.487L91.9698 127.679ZM111.405 130.292L111.405 143.592L97.287 135.441L97.287 122.141L98.4881 122.835L98.4881 134.919L103.754 137.959L103.754 125.875L104.955 126.568L104.955 138.652L110.204 141.683L110.204 129.599L111.405 130.292ZM124.334 137.757L119.101 145.927C118.729 146.51 118.29 146.852 117.785 146.953C117.291 147.048 116.748 146.925 116.156 146.583C115.717 146.329 115.246 145.937 114.741 145.405L115.087 144.464C115.482 144.869 115.843 145.167 116.173 145.357C116.929 145.794 117.549 145.677 118.032 145.006L118.361 144.55L113.688 131.611L114.988 132.361L119.003 143.685L123.116 137.054L124.334 137.757ZM52.356 132.615C51.2152 131.956 50.184 131.069 49.2626 129.955C48.3521 128.846 47.6336 127.627 47.107 126.297C46.5914 124.961 46.3337 123.653 46.3337 122.374C46.3337 121.094 46.5914 120.09 47.107 119.362C47.6336 118.627 48.3576 118.235 49.279 118.184C50.2005 118.133 51.2316 118.437 52.3725 119.096C53.2281 119.59 54.0179 120.211 54.7419 120.958C55.4659 121.705 56.0802 122.541 56.5848 123.466L55.8114 123.913C54.9119 122.342 53.7766 121.161 52.4054 120.369C51.4949 119.843 50.6667 119.606 49.9207 119.657C49.1748 119.707 48.5879 120.027 48.1601 120.616C47.7433 121.211 47.5348 122.028 47.5348 123.067C47.5348 124.106 47.7433 125.163 48.1601 126.24C48.5879 127.323 49.1748 128.321 49.9207 129.233C50.6667 130.145 51.4949 130.863 52.4054 131.389C53.7875 132.187 54.9229 132.311 55.8114 131.76L56.5848 133.099C56.0802 133.441 55.4604 133.571 54.7254 133.489C54.0014 133.4 53.2116 133.109 52.356 132.615ZM71.1828 136.701C71.1828 138.462 70.6398 139.535 69.5538 139.922C68.4787 140.302 66.9704 139.963 65.0288 138.905L65.0288 140.273L63.8934 139.618L63.8934 138.25C61.9518 137.053 60.438 135.64 59.352 134.013C58.277 132.391 57.7394 130.7 57.7394 128.94C57.7394 127.179 58.277 126.109 59.352 125.729C60.438 125.355 61.9518 125.691 63.8934 126.736L63.8934 125.406L65.0288 126.061L65.0288 127.391C66.9594 128.582 68.4678 129.997 69.5538 131.638C70.6398 133.265 71.1828 134.953 71.1828 136.701ZM65.0288 137.784C66.6194 138.627 67.848 138.899 68.7146 138.601C69.5812 138.304 70.0145 137.445 70.0145 136.027C70.0145 134.608 69.5757 133.246 68.6981 131.942C67.8315 130.643 66.6084 129.507 65.0288 128.531L65.0288 137.784ZM58.9077 129.614C58.9077 131.033 59.341 132.391 60.2076 133.69C61.0852 134.982 62.3138 136.128 63.8934 137.129L63.8934 127.876C62.2919 127.027 61.0578 126.752 60.1912 127.049C59.3355 127.341 58.9077 128.196 58.9077 129.614ZM82.0919 148.453L82.0919 149.669L73.947 144.966L73.947 131.666L81.8451 136.226L81.8451 137.442L75.1646 133.585L75.1646 138.316L81.1211 141.755L81.1211 142.952L75.1646 139.513L75.1646 144.453L82.0919 148.453ZM89.1045 140.417C90.5744 141.266 91.7263 142.336 92.56 143.628C93.3936 144.92 93.8105 146.276 93.8105 147.694C93.8105 149.113 93.3936 149.987 92.56 150.316C91.7263 150.633 90.5744 150.367 89.1045 149.518L86.0111 147.732L86.0111 151.931L84.7934 151.228L84.7934 137.928L89.1045 140.417ZM89.0716 148.264C90.2124 148.923 91.0845 149.142 91.6879 148.92C92.2912 148.686 92.5929 148.043 92.5929 146.991C92.5929 145.915 92.2912 144.917 91.6879 143.999C91.0845 143.068 90.2125 142.273 89.0716 141.614L86.0111 139.847L86.0111 146.497L89.0716 148.264ZM105.108 149.657L99.8751 157.827C99.5022 158.409 99.0634 158.751 98.5588 158.853C98.0651 158.948 97.5221 158.824 96.9298 158.482C96.491 158.229 96.0193 157.836 95.5147 157.304L95.8602 156.364C96.2551 156.769 96.6171 157.067 96.9462 157.257C97.7031 157.694 98.3229 157.577 98.8056 156.905L99.1347 156.449L94.4616 143.51L95.7615 144.261L99.7764 155.585L103.89 148.954L105.108 149.657Z" fill="white"/>
</g>
<defs>
<linearGradient id="paint0_linear" x1="113.285" y1="-53.5858" x2="-22.8967" y2="3.19724" gradientUnits="userSpaceOnUse">
<stop stop-color="#5287FC"/>
<stop offset="1" stop-color="#DD5DFC"/>
</linearGradient>
<linearGradient id="paint1_linear" x1="150.161" y1="79.9652" x2="43.2503" y2="121.126" gradientUnits="userSpaceOnUse">
<stop stop-color="#6E52FC"/>
<stop offset="1" stop-color="#DD5DFC"/>
</linearGradient>
<clipPath id="clip0">
<rect width="1440" height="5814" fill="white" transform="translate(-1201 -2871)"/>
</clipPath>
</defs>
</svg>
