<svg width="127" height="121" viewBox="0 0 127 121" fill="none" xmlns="http://www.w3.org/2000/svg">
<path d="M1 114.5L1 72.5L96.6958 17.25L96.6958 34.25L121.378 20L121.378 45L1 114.5Z" stroke="white"/>
<path d="M6 117.5L6 75.5L101.696 20.25L101.696 37.25L126.378 23L126.378 48L6 117.5Z" fill="white"/>
<path d="M15.7064 87.998C14.6857 88.5873 13.7631 88.8593 12.9386 88.814C12.124 88.763 11.4811 88.4145 11.01 87.7685C10.5487 87.1055 10.318 86.2017 10.318 85.057C10.318 83.9123 10.5487 82.7478 11.01 81.5635C11.4811 80.3622 12.1289 79.2628 12.9533 78.2655C13.7778 77.2682 14.7004 76.4748 15.7211 75.8855C16.4867 75.4435 17.1934 75.1828 17.8412 75.1035C18.489 75.0242 19.0386 75.1375 19.4901 75.4435L18.7981 76.642C17.9933 76.166 16.9775 76.2822 15.7506 76.9905C14.9359 77.4608 14.1949 78.104 13.5275 78.92C12.8601 79.736 12.335 80.6285 11.9522 81.5975C11.5792 82.5608 11.3928 83.5072 11.3928 84.4365C11.3928 85.3658 11.5792 86.0968 11.9522 86.6295C12.335 87.1565 12.8601 87.4427 13.5275 87.488C14.1949 87.5333 14.9359 87.3208 15.7506 86.8505C16.9873 86.1365 18.0031 85.074 18.7981 83.663L19.4901 84.0625C19.0386 84.8898 18.4841 85.6463 17.8265 86.332C17.1787 87.0007 16.472 87.556 15.7064 87.998ZM37.6698 63.3154L37.6698 75.2154L36.5951 75.8359L36.5951 70.3449L30.1467 74.0679L30.1467 79.5589L29.0572 80.1879L29.0572 68.2879L30.1467 67.6589L30.1467 72.9629L36.5951 69.2399L36.5951 63.9359L37.6698 63.3154ZM47.4004 69.6995C46.3797 70.2888 45.4522 70.5636 44.6179 70.524C43.7934 70.4673 43.1456 70.116 42.6745 69.47C42.2132 68.8183 41.9826 67.9201 41.9826 66.7755C41.9826 65.6308 42.2132 64.4663 42.6745 63.282C43.1456 62.092 43.7934 60.9983 44.6179 60.001C45.4522 58.9866 46.3797 58.1848 47.4004 57.5955C48.4212 57.0061 49.3389 56.737 50.1535 56.788C50.978 56.8333 51.6258 57.1846 52.0969 57.842C52.568 58.488 52.8036 59.3833 52.8036 60.528C52.8036 61.6726 52.568 62.8456 52.0969 64.047C51.6258 65.237 50.978 66.3306 50.1535 67.328C49.3389 68.3196 48.4212 69.1101 47.4004 69.6995ZM47.4004 68.5775C48.2151 68.1071 48.9512 67.4725 49.6088 66.6735C50.2664 65.8631 50.7817 64.9763 51.1546 64.013C51.5276 63.0383 51.7141 62.0863 51.7141 61.157C51.7141 60.2276 51.5276 59.4966 51.1546 58.964C50.7817 58.42 50.2664 58.1281 49.6088 58.0885C48.9512 58.0375 48.2151 58.2471 47.4004 58.7175C46.5858 59.1878 45.8448 59.831 45.1773 60.647C44.5197 61.446 43.9995 62.3356 43.6168 63.316C43.2438 64.2793 43.0573 65.2256 43.0573 66.155C43.0573 67.0843 43.2438 67.821 43.6168 68.365C43.9995 68.892 44.5197 69.181 45.1773 69.232C45.8448 69.266 46.5858 69.0478 47.4004 68.5775ZM63.2452 54.3125C63.9617 54.0688 64.5064 54.0886 64.8794 54.372C65.2523 54.644 65.4388 55.1766 65.4388 55.97C65.4388 57.0013 65.1198 57.9788 64.4819 58.9025C63.8537 59.8205 62.9262 60.6336 61.6993 61.342L57.1354 63.977L57.1354 52.077L61.4196 49.6035C62.5189 48.9688 63.3777 48.7336 63.996 48.898C64.6144 49.0623 64.9235 49.6375 64.9235 50.6235C64.9235 51.2921 64.7763 51.9438 64.4819 52.5785C64.1874 53.2018 63.7752 53.7798 63.2452 54.3125ZM58.2101 56.8455L61.3607 55.0265C62.1557 54.5675 62.7643 54.0291 63.1863 53.4115C63.6182 52.7881 63.8341 52.1195 63.8341 51.4055C63.8341 50.6915 63.6182 50.2721 63.1863 50.1475C62.7643 50.0171 62.1557 50.1815 61.3607 50.6405L58.2101 52.4595L58.2101 56.8455ZM61.6993 60.339C63.4758 59.3133 64.3641 58.0355 64.3641 56.5055C64.3641 55.0095 63.4758 54.7743 61.6993 55.8L58.2101 57.8145L58.2101 62.3535L61.6993 60.339ZM74.2085 46.4698C75.4256 45.7671 76.3531 45.5489 76.9911 45.8153C77.6389 46.0759 77.9628 46.8183 77.9628 48.0423C77.9628 49.3229 77.6192 50.4959 76.9322 51.5613C76.255 52.6096 75.2735 53.5049 73.9877 54.2473L69.8949 56.6103L69.8949 44.7103L70.9696 44.0898L70.9696 48.3398L74.2085 46.4698ZM73.9583 53.2613C74.9103 52.7116 75.6317 52.0514 76.1225 51.2808C76.623 50.5044 76.8733 49.6403 76.8733 48.6883C76.8733 46.8636 75.9016 46.5123 73.9583 47.6343L70.9696 49.3598L70.9696 54.9868L73.9583 53.2613ZM79.7442 39.0238L80.8189 38.4033L80.8189 50.3033L79.7442 50.9238L79.7442 39.0238ZM96.7219 29.2217L96.7219 41.1217L95.6766 41.7252L95.6766 32.2052L91.6279 42.5497L91.1126 42.8472L87.064 37.2287L87.064 46.6977L86.0187 47.3012L86.0187 35.4012L86.9167 34.8827L91.3924 41.1217L95.8238 29.7402L96.7219 29.2217ZM23.8332 89.304L23.8332 101.204L11.2014 108.497L11.2014 96.597L12.2761 95.9765L12.2761 106.788L16.9873 104.068L16.9873 93.2565L18.062 92.636L18.062 103.448L22.7585 100.736L22.7585 89.9245L23.8332 89.304ZM35.6317 91.2131L29.89 94.5281L28.6533 98.4211L27.5197 99.0756L32.2308 84.4556L33.3056 83.8351L38.0168 93.0151L36.8684 93.6781L35.6317 91.2131ZM35.2342 90.4226L32.7608 85.4586L30.2875 93.2786L35.2342 90.4226ZM41.7237 78.9749L49.2616 74.6229L49.2616 75.6939L42.7984 79.4254L42.7984 83.3184L46.1699 81.3719C47.3869 80.6693 48.3095 80.4256 48.9377 80.6409C49.5756 80.8506 49.8946 81.5051 49.8946 82.6044C49.8946 83.7491 49.5511 84.8258 48.8641 85.8344C48.1868 86.8374 47.2102 87.7073 45.9343 88.4439L41.7237 90.8749L41.7237 78.9749ZM45.9196 87.4494C46.8716 86.8998 47.5881 86.2764 48.069 85.5794C48.5598 84.8768 48.8052 84.1118 48.8052 83.2844C48.8052 82.4684 48.5647 82.0009 48.0838 81.8819C47.6127 81.7459 46.8913 81.9584 45.9196 82.5194L42.7984 84.3214L42.7984 89.2514L45.9196 87.4494ZM61.9619 67.2904L61.9619 79.1904L60.8872 79.8109L60.8872 68.9989L55.911 71.8719L55.7932 75.9179C55.7442 77.5895 55.6264 78.9835 55.4399 80.0999C55.2632 81.1992 54.9884 82.1059 54.6154 82.8199C54.2425 83.5225 53.7468 84.0524 53.1285 84.4094C52.8635 84.5624 52.5887 84.6814 52.304 84.7664L52.3924 83.5934C52.5592 83.5424 52.7212 83.4715 52.8782 83.3809C53.3101 83.1315 53.6585 82.732 53.9235 82.1824C54.1983 81.627 54.4044 80.896 54.5418 79.9894C54.6792 79.0714 54.7725 77.9125 54.8216 76.5129L54.9688 71.3279L61.9619 67.2904ZM71.6906 73.6755C70.6698 74.2649 69.7423 74.5397 68.908 74.5C68.0836 74.4434 67.4358 74.092 66.9647 73.446C66.5034 72.7944 66.2727 71.8962 66.2727 70.7515C66.2727 69.6069 66.5034 68.4424 66.9647 67.258C67.4358 66.068 68.0836 64.9744 68.908 63.977C69.7423 62.9627 70.6698 62.1609 71.6906 61.5715C72.7113 60.9822 73.629 60.713 74.4437 60.764C75.2681 60.8094 75.9159 61.1607 76.387 61.818C76.8581 62.464 77.0937 63.3594 77.0937 64.504C77.0937 65.6487 76.8581 66.8217 76.387 68.023C75.9159 69.213 75.2681 70.3067 74.4437 71.304C73.629 72.2957 72.7113 73.0862 71.6906 73.6755ZM71.6906 72.5535C72.5052 72.0832 73.2413 71.4485 73.8989 70.6495C74.5565 69.8392 75.0718 68.9524 75.4448 67.989C75.8178 67.0144 76.0042 66.0624 76.0042 65.133C76.0042 64.2037 75.8178 63.4727 75.4448 62.94C75.0718 62.396 74.5565 62.1042 73.8989 62.0645C73.2413 62.0135 72.5052 62.2232 71.6906 62.6935C70.8759 63.1639 70.1349 63.807 69.4675 64.623C68.8099 65.422 68.2897 66.3117 67.9069 67.292C67.5339 68.2554 67.3475 69.2017 67.3475 70.131C67.3475 71.0604 67.5339 71.797 67.9069 72.341C68.2897 72.868 68.8099 73.157 69.4675 73.208C70.1349 73.242 70.8759 73.0239 71.6906 72.5535ZM90.0382 51.0806L90.0382 62.9806L88.9634 63.6011L88.9634 58.1101L82.515 61.8331L82.515 67.3241L81.4255 67.9531L81.4255 56.0531L82.515 55.4241L82.515 60.7281L88.9634 57.0051L88.9634 51.7011L90.0382 51.0806ZM99.7687 57.4646C98.748 58.0539 97.8205 58.3288 96.9862 58.2891C96.1617 58.2324 95.514 57.8811 95.0428 57.2351C94.5815 56.5834 94.3509 55.6853 94.3509 54.5406C94.3509 53.3959 94.5815 52.2314 95.0428 51.0471C95.514 49.8571 96.1617 48.7634 96.9862 47.7661C97.8205 46.7518 98.748 45.9499 99.7687 45.3606C100.789 44.7713 101.707 44.5021 102.522 44.5531C103.346 44.5984 103.994 44.9498 104.465 45.6071C104.936 46.2531 105.172 47.1484 105.172 48.2931C105.172 49.4378 104.936 50.6108 104.465 51.8121C103.994 53.0021 103.346 54.0958 102.522 55.0931C101.707 56.0848 100.789 56.8753 99.7687 57.4646ZM99.7687 56.3426C100.583 55.8723 101.32 55.2376 101.977 54.4386C102.635 53.6283 103.15 52.7414 103.523 51.7781C103.896 50.8034 104.082 49.8514 104.082 48.9221C104.082 47.9928 103.896 47.2618 103.523 46.7291C103.15 46.1851 102.635 45.8933 101.977 45.8536C101.32 45.8026 100.583 46.0123 99.7687 46.4826C98.9541 46.9529 98.2131 47.5961 97.5457 48.4121C96.8881 49.2111 96.3679 50.1008 95.9851 51.0811C95.6121 52.0444 95.4256 52.9908 95.4256 53.9201C95.4256 54.8494 95.6121 55.5861 95.9851 56.1301C96.3679 56.6571 96.8881 56.9461 97.5457 56.9971C98.2131 57.0311 98.9541 56.8129 99.7687 56.3426ZM120.207 33.6626L120.207 45.5626L119.162 46.1661L119.162 36.6461L115.113 46.9906L114.598 47.2881L110.549 41.6696L110.549 51.1386L109.504 51.7421L109.504 39.8421L110.402 39.3236L114.877 45.5626L119.309 34.1811L120.207 33.6626Z" fill="url(#paint0_linear)"/>
<defs>
<linearGradient id="paint0_linear" x1="86.3514" y1="15.7497" x2="92.1386" y2="94.9264" gradientUnits="userSpaceOnUse">
<stop stop-color="#5287FC"/>
<stop offset="1" stop-color="#DD5DFC"/>
</linearGradient>
</defs>
</svg>
