<svg width="247" height="543" viewBox="0 0 247 543" fill="none" xmlns="http://www.w3.org/2000/svg">
<path d="M33 217.5L33 173.5C16.5 167.5 8.49954 175 7.46848 184.469C5.6345 201.313 21.3256 214.927 33 217.5Z" fill="#F3F3F3" stroke="#9C71FC" stroke-linecap="round" stroke-linejoin="round"/>
<path d="M31.8262 123.33C31.8262 113.902 31.8262 109.188 34.3627 104.795C36.8992 100.401 40.9817 98.0441 49.1467 93.3301L181.821 16.7303C188.764 12.7222 192.4 12.4751 196.5 13.5C200.5 14.5 204.526 16.9857 210.5 22.5L200.5 27L197.877 357.461C197.877 366.889 197.877 371.603 195.34 375.996C192.804 380.39 188.721 382.747 180.556 387.461L50.9997 477C43.9997 476 37.5 473 34.9997 469.5C32.0454 465.365 31.8262 462.758 31.8262 453.33L31.8262 123.33Z" fill="url(#paint0_linear)"/>
<rect x="0.433013" y="0.25" width="190.739" height="369" rx="9.5" transform="matrix(0.866025 -0.5 2.20305e-08 1 46.8842 112.547)" fill="url(#paint1_linear)" stroke="white"/>
<path d="M222.909 318.366C222.909 318.366 221.402 312.443 224.576 303.244L227.824 273.784C220.592 248.559 200.341 209 196.106 195.53C190.36 177.255 182.507 157.672 195.469 143.567C201.385 137.129 208.911 135.829 214.578 138.223C218.018 144.302 218.606 159.479 237.665 184.518L227.824 273.784C230.431 282.875 231.346 290.105 229.211 293.579C227.062 297.074 225.583 300.324 224.576 303.244L222.909 318.366Z" fill="white"/>
<path d="M212.103 287.175C215.98 289.522 223.459 292.81 228 294" stroke="#9C71FC" stroke-linecap="round" stroke-linejoin="round"/>
<path d="M222.909 318.366C222.909 318.366 220.294 308.087 229.211 293.579C237.271 280.465 201.868 213.855 196.106 195.53C190.36 177.255 182.507 157.672 195.469 143.567C201.385 137.129 208.911 135.829 214.578 138.223C218.018 144.302 229.211 187 262 217" stroke="#9C71FC" stroke-linecap="round" stroke-linejoin="round"/>
<path d="M24.1577 352.832C16.9578 356.917 9.697 358.373 6.50627 366.482C-0.681801 384.749 20 402.5 31.9996 416L31.9996 391.531C36.5953 390.203 40.6909 387.828 44.9996 384.5C53.0826 378.257 54.1434 372.446 53.7797 363.057C53.0344 343.815 37.5327 345.242 24.1577 352.832Z" fill="white"/>
<path d="M32.0003 416.5C20.5 402.5 -0.682034 384.749 6.50604 366.482C9.69677 358.373 16.9576 356.917 24.1575 352.832C37.5325 345.242 53.0342 343.815 53.7794 363.057C54.1431 372.446 53.0824 378.257 44.9994 384.5C38.0279 389.884 31.6141 392.774 22.7373 392.774" stroke="#9C71FC" stroke-linecap="round" stroke-linejoin="round"/>
<path d="M41.4456 371.393C38.3246 373.325 28.9917 373.139 26.2816 370.131C17.8387 360.76 37.9097 347.351 38.6919 354.593C39.4142 361.281 34.0213 365.306 41.4456 371.393Z" stroke="#9C71FC" stroke-linecap="round" stroke-linejoin="round"/>
<path d="M36.5 282.5C31.9512 280.204 23.127 276.393 16.1429 281.013C9.78695 285.218 1 298.489 1 306.346C1 326.233 18.5 332 32 347.5V324.447C37.4983 323.728 43.0588 321.215 47.8052 315.554C56.5997 305.065 48.7195 288.667 36.5 282.5Z" fill="white"/>
<path d="M32.561 315.285C28.8448 316.117 21.5758 311.174 21.3691 306.058C20.7253 290.118 45.2579 283.542 41.2092 292.961C37.4706 301.659 30.6063 303.953 32.561 315.285Z" stroke="#9C71FC" stroke-linecap="round" stroke-linejoin="round"/>
<path d="M26.9998 221.5C17.816 224.275 5.53567 236 6.00939 249.033C6.4595 261.413 25.5239 269.134 31.9995 280V263.938C39.394 258.934 43.9995 250.147 43.9995 240.842C43.9995 229.885 39.6847 217.666 26.9998 221.5Z" fill="white"/>
<path d="M32 348C14 328.5 1 326.233 1 306.346C1 298.489 9.78695 285.218 16.1429 281.013C23.127 276.393 31.9512 280.204 36.5 282.5C48.7195 288.667 56.5997 305.065 47.8052 315.554C31.5 335 5.58874 317.308 5.58874 317.308" stroke="#9C71FC" stroke-linecap="round" stroke-linejoin="round"/>
<path d="M31.9995 280C25.5239 269.134 6.4595 261.413 6.00939 249.033C5.53567 236 17.816 224.275 26.9998 221.5C39.6847 217.666 43.9995 229.885 43.9995 240.842C43.9995 253.16 35.928 264.571 23.9995 267.5" stroke="#9C71FC" stroke-linecap="round" stroke-linejoin="round"/>
<path d="M78 463C98.5 487 131 515 170.5 542" stroke="url(#paint2_linear)" stroke-linecap="round" stroke-linejoin="round"/>
<path d="M68.8497 141.468L64.3723 130.281L64.2961 130.325C64.3342 130.758 64.366 131.355 64.3914 132.118C64.4168 132.866 64.4295 133.658 64.4295 134.494L64.4295 144.02L62.8481 144.933L62.8481 129.225L65.3821 127.762L69.5737 138.212L69.6499 138.168L73.9176 122.834L76.4326 121.382L76.4326 137.09L74.7369 138.069L74.7369 128.411C74.7369 127.648 74.7496 126.886 74.775 126.123C74.8131 125.353 74.8449 124.726 74.8703 124.242L74.7941 124.286L70.2595 140.654L68.8497 141.468ZM93.7349 119.225C93.7349 120.853 93.4935 122.415 93.0109 123.911C92.5409 125.385 91.8423 126.727 90.9151 127.937C89.9879 129.147 88.8384 130.148 87.4666 130.94C86.0567 131.754 84.8818 132.095 83.9419 131.963C83.0146 131.823 82.3224 131.277 81.8651 130.324C81.4079 129.37 81.1792 128.08 81.1792 126.452C81.1792 124.838 81.4079 123.298 81.8651 121.832C82.3224 120.365 83.0146 119.027 83.9419 117.817C84.8818 116.599 86.0631 115.58 87.4856 114.759C88.8447 113.974 89.9879 113.651 90.9151 113.791C91.8423 113.915 92.5409 114.451 93.0109 115.397C93.4935 116.321 93.7349 117.597 93.7349 119.225ZM82.9892 125.429C82.9892 127.409 83.3512 128.762 84.0752 129.488C84.7992 130.199 85.9297 130.111 87.4666 129.224C89.0162 128.329 90.1466 127.112 90.8579 125.572C91.5692 124.017 91.9249 122.25 91.9249 120.27C91.9249 118.29 91.5692 116.948 90.8579 116.244C90.1466 115.525 89.0225 115.609 87.4856 116.497C85.9487 117.384 84.8119 118.605 84.0752 120.16C83.3512 121.692 82.9892 123.449 82.9892 125.429ZM102.369 106.408C104.071 105.425 105.354 104.978 106.217 105.066C107.094 105.132 107.532 105.883 107.532 107.321C107.532 108.245 107.31 109.143 106.865 110.016C106.421 110.874 105.779 111.633 104.941 112.293L104.941 112.403C105.512 112.175 106.027 112.069 106.484 112.084C106.954 112.091 107.322 112.274 107.589 112.634C107.856 112.993 107.989 113.583 107.989 114.405C107.989 115.827 107.564 117.173 106.713 118.442C105.874 119.703 104.725 120.755 103.264 121.599L98.482 124.36L98.482 108.652L102.369 106.408ZM102.712 112.898C103.88 112.223 104.68 111.548 105.112 110.874C105.544 110.184 105.76 109.414 105.76 108.564C105.76 107.698 105.493 107.236 104.96 107.178C104.439 107.097 103.601 107.39 102.445 108.058L100.197 109.356L100.197 114.35L102.712 112.898ZM100.197 116L100.197 121.698L102.94 120.114C104.147 119.417 104.985 118.662 105.455 117.848C105.925 117.034 106.16 116.187 106.16 115.307C106.16 114.485 105.912 113.968 105.417 113.756C104.934 113.521 104.064 113.767 102.807 114.493L100.197 116ZM116.435 113.994L111.52 116.832L111.52 115.688L113.12 114.346L113.12 101.784L111.52 102.268L111.52 101.124L116.435 98.2865L116.435 99.4305L114.835 100.794L114.835 113.356L116.435 112.85L116.435 113.994ZM120.794 111.478L120.794 95.7699L122.509 94.7799L122.509 108.728L128.453 105.296L128.453 107.056L120.794 111.478ZM140.119 100.32L132.517 104.709L132.517 89.0014L140.119 84.6124L140.119 86.3504L134.232 89.7494L134.232 94.6554L139.776 91.4544L139.776 93.1704L134.232 96.3714L134.232 101.981L140.119 98.5824L140.119 100.32ZM152.553 88.9401C152.553 90.3334 152.114 91.6717 151.238 92.9551C150.362 94.2384 149.18 95.3091 147.694 96.1671C146.932 96.6071 146.227 96.9481 145.579 97.1901C144.932 97.4321 144.392 97.5604 143.96 97.5751L143.96 95.6831C144.417 95.6537 144.982 95.5401 145.656 95.3421C146.341 95.1367 147.046 94.8251 147.77 94.4071C148.787 93.8204 149.549 93.1531 150.057 92.4051C150.578 91.6497 150.838 90.8834 150.838 90.1061C150.838 89.5927 150.743 89.2151 150.552 88.9731C150.362 88.7311 150.031 88.5991 149.561 88.5771C149.104 88.5331 148.463 88.5807 147.637 88.7201C146.481 88.9034 145.605 88.8154 145.008 88.4561C144.424 88.0894 144.131 87.2974 144.131 86.0801C144.131 85.2441 144.316 84.4264 144.684 83.6271C145.052 82.8131 145.56 82.0577 146.208 81.3611C146.869 80.6571 147.624 80.0594 148.475 79.5681C149.225 79.1354 149.911 78.8201 150.533 78.6221C151.155 78.4241 151.721 78.3104 152.229 78.2811L151.695 80.2831C151.225 80.3197 150.711 80.4187 150.152 80.5801C149.606 80.7341 149.034 80.9834 148.437 81.3281C147.586 81.8194 146.945 82.4024 146.513 83.0771C146.081 83.7371 145.865 84.4117 145.865 85.1011C145.865 85.6291 145.96 86.0141 146.151 86.2561C146.341 86.4981 146.653 86.6337 147.085 86.6631C147.516 86.6924 148.101 86.6557 148.837 86.5531C149.638 86.4284 150.311 86.4064 150.857 86.4871C151.416 86.5457 151.835 86.7657 152.114 87.1471C152.407 87.5211 152.553 88.1187 152.553 88.9401ZM167.428 84.554L165.713 85.544L165.713 78.218L158.74 82.244L158.74 89.57L157.025 90.56L157.025 74.852L158.74 73.862L158.74 80.506L165.713 76.48L165.713 69.836L167.428 68.846L167.428 84.554ZM184.749 66.6776C184.749 68.3056 184.507 69.8676 184.025 71.3636C183.555 72.8376 182.856 74.1796 181.929 75.3896C181.002 76.5996 179.852 77.6006 178.48 78.3926C177.071 79.2066 175.896 79.5476 174.956 79.4156C174.028 79.2763 173.336 78.73 172.879 77.7766C172.422 76.8233 172.193 75.5326 172.193 73.9046C172.193 72.2913 172.422 70.7513 172.879 69.2846C173.336 67.818 174.028 66.4796 174.956 65.2696C175.896 64.0523 177.077 63.033 178.499 62.2116C179.859 61.427 181.002 61.1043 181.929 61.2436C182.856 61.3683 183.555 61.9036 184.025 62.8496C184.507 63.7736 184.749 65.0496 184.749 66.6776ZM174.003 72.8816C174.003 74.8616 174.365 76.2146 175.089 76.9406C175.813 77.652 176.944 77.564 178.48 76.6766C180.03 75.782 181.161 74.5646 181.872 73.0246C182.583 71.47 182.939 69.7026 182.939 67.7226C182.939 65.7426 182.583 64.4006 181.872 63.6966C181.161 62.978 180.036 63.0623 178.499 63.9496C176.963 64.837 175.826 66.058 175.089 67.6126C174.365 69.1453 174.003 70.9016 174.003 72.8816ZM193.097 54.0259C194.875 52.9992 196.171 52.6545 196.984 52.9919C197.796 53.3292 198.203 54.2312 198.203 55.6979C198.203 56.5632 198.031 57.4762 197.688 58.4369C197.358 59.3755 196.793 60.3105 195.993 61.2419C195.205 62.1659 194.132 63.0202 192.773 63.8049L191.211 64.7069L191.211 70.8229L189.496 71.8129L189.496 56.1049L193.097 54.0259ZM192.944 55.8079L191.211 56.8089L191.211 63.0129L192.582 62.2209C193.878 61.4729 194.843 60.6735 195.478 59.8229C196.113 58.9722 196.431 57.9675 196.431 56.8089C196.431 55.7969 196.152 55.2029 195.593 55.0269C195.034 54.8509 194.151 55.1112 192.944 55.8079Z" fill="white"/>
<rect x="0.433013" y="0.25" width="157.194" height="84.5423" rx="5.5" transform="matrix(0.866025 -0.5 2.20305e-08 1 63.058 170.857)" stroke="white"/>
<rect x="0.433013" y="0.25" width="74.0555" height="84.5423" rx="5.5" transform="matrix(0.866025 -0.5 2.20305e-08 1 63.058 305.314)" stroke="white"/>
<path d="M128 434.972L128 398.415C128 392.758 128 389.929 126.478 389.051C124.956 388.172 122.507 389.586 117.608 392.415L73.3923 417.942C68.4933 420.771 66.0438 422.185 64.5219 424.821C63 427.457 63 430.286 63 435.942L63 472.5" stroke="white"/>
<rect x="-0.433013" y="0.75" width="72.9008" height="84.5423" rx="5.5" transform="matrix(-0.866025 0.5 2.20305e-08 1 197.192 227.371)" stroke="white"/>
<path d="M134 431.45L134 394.95C134 389.294 134 386.465 135.522 383.829C137.044 381.193 139.493 379.779 144.392 376.95L187.608 352C192.507 349.172 194.956 347.757 196.478 348.636C198 349.515 198 352.343 198 358L198 394.5" stroke="white"/>
<rect x="0.433013" y="0.25" width="35.9504" height="14" rx="7" transform="matrix(0.866025 -0.5 2.20305e-08 1 63.058 270.314)" stroke="white"/>
<rect x="-0.433013" y="0.75" width="33.641" height="14" rx="7" transform="matrix(-0.866025 0.5 2.20305e-08 1 127.192 232.786)" stroke="white"/>
<rect x="0.433013" y="0.25" width="42.8786" height="14" rx="7" transform="matrix(0.866025 -0.5 2.20305e-08 1 132.058 230.476)" stroke="white"/>
<rect x="-0.433013" y="0.75" width="27.8675" height="14" rx="7" transform="matrix(-0.866025 0.5 2.20305e-08 1 197.192 192.371)" stroke="white"/>
<line y1="-0.5" x2="52" y2="-0.5" transform="matrix(0.866025 -0.5 2.20305e-08 1 63 400)" stroke="white"/>
<line y1="-0.5" x2="42" y2="-0.5" transform="matrix(0.866025 -0.5 2.20305e-08 1 63 406)" stroke="white"/>
<line y1="-0.5" x2="52" y2="-0.5" transform="matrix(0.866025 -0.5 2.20305e-08 1 134 359)" stroke="white"/>
<line y1="-0.5" x2="42" y2="-0.5" transform="matrix(0.866025 -0.5 2.20305e-08 1 134 365)" stroke="white"/>
<path d="M214.578 138.223C213.002 146.942 216.229 172.242 225.635 166.2" stroke="#9C71FC"/>
<path d="M34.5 221.5C26.5 220.5 16.6539 231.5 14.5 238.5C13.5048 241.735 11 237 7.5 240" stroke="#9C71FC" stroke-linecap="round" stroke-linejoin="round"/>
<defs>
<linearGradient id="paint0_linear" x1="153.849" y1="-141.956" x2="-114.241" y2="-46.8331" gradientUnits="userSpaceOnUse">
<stop stop-color="#5287FC"/>
<stop offset="1" stop-color="#DD5DFC"/>
</linearGradient>
<linearGradient id="paint1_linear" x1="130.946" y1="-168.138" x2="-111.693" y2="-88.4036" gradientUnits="userSpaceOnUse">
<stop stop-color="#5287FC"/>
<stop offset="1" stop-color="#DD5DFC"/>
</linearGradient>
<linearGradient id="paint2_linear" x1="170.5" y1="470.534" x2="103.349" y2="515.478" gradientUnits="userSpaceOnUse">
<stop stop-color="#6E52FC"/>
<stop offset="1" stop-color="#DD5DFC"/>
</linearGradient>
</defs>
</svg>
