<svg width="151" height="253" viewBox="0 0 151 253" fill="none" xmlns="http://www.w3.org/2000/svg">
<path d="M70.6478 41.4109L78.7131 46.7179L78.9535 46.876L79.2543 46.4913L89.3484 33.5821L94.7866 42.5489L94.9487 42.8162L95.2876 42.511L106.662 32.2698L109.07 44.2315L109.142 44.588L109.494 44.3849L121.305 37.5715L120.504 51.6408L120.48 52.0601L120.819 51.9743L132.19 49.0938L128.24 64.2274L128.122 64.6784L128.423 64.7161L138.512 65.9822L131.704 81.0577L131.502 81.5069L131.742 81.6654L139.8 86.9843L130.641 100.883L130.368 101.298L130.53 101.565L135.959 110.542L125.128 122.234L124.805 122.583L124.877 122.94L127.275 134.909L115.575 143.527L115.226 143.784L115.202 144.203L114.391 158.277L102.689 163.182L102.34 163.328L102.222 163.779L98.2624 178.914L87.4272 179.742L87.1043 179.766L86.9012 180.216L80.086 195.289L70.921 191.978L70.6478 191.879L70.3747 192.293L61.2097 206.187L54.3944 198.983L54.1913 198.769L53.8684 199.117L43.0333 210.801L39.0734 200.238L38.9553 199.923L38.6066 200.18L26.9049 208.787L26.094 195.65L26.0698 195.258L25.7212 195.404L14.0208 200.296L16.419 185.558L16.4905 185.118L16.1677 185.143L5.33642 185.957L10.7659 170.711L10.9277 170.257L10.6548 170.157L1.49591 166.834L9.55399 152.211L9.79414 151.775L9.59127 151.56L2.78407 144.345L12.8731 131.429L13.1738 131.044L13.0561 130.729L9.10539 120.157L20.4771 109.906L20.816 109.601L20.7922 109.209L19.991 96.0649L31.8021 89.2402L32.1541 89.0368L32.2258 88.5974L34.6336 73.8555L46.008 70.9626L46.347 70.8763L46.5091 70.422L51.9473 55.1757L62.0414 56.4292L62.3422 56.4665L62.5826 56.0308L70.6478 41.4109Z" stroke="url(#paint0_linear)"/>
<path d="M80.6478 50.6787L89.0294 56.1938L99.5195 42.7783L105.171 52.0968L116.992 41.454L119.494 53.8848L131.768 46.8041L130.936 61.4253L142.753 58.4319L138.648 74.159L149.132 75.4748L142.058 91.1415L150.432 96.669L140.914 111.113L146.557 120.442L135.301 132.593L137.793 145.032L125.634 153.988L124.791 168.614L112.63 173.711L108.515 189.44L97.2549 190.3L90.1724 205.965L80.6478 202.524L71.1233 216.963L64.0408 209.476L52.7806 221.618L48.6654 210.641L36.5047 219.586L35.662 205.933L23.5027 211.018L25.995 195.701L14.7389 196.548L20.3814 180.703L10.8633 177.249L19.2374 162.052L12.1632 154.554L22.648 141.131L18.5424 130.145L30.3601 119.493L29.5276 105.833L41.8019 98.7403L44.3042 83.4201L56.1247 80.4137L61.7762 64.5694L72.2662 65.8721L80.6478 50.6787Z" fill="url(#paint1_linear)"/>
<path d="M51.5203 125.579L51.5203 138.879L50.3191 139.573L50.3191 133.436L43.112 137.597L43.112 143.734L41.8944 144.437L41.8944 131.137L43.112 130.434L43.112 136.362L50.3191 132.201L50.3191 126.273L51.5203 125.579ZM63.0579 132.332C61.917 132.991 60.8804 133.298 59.948 133.253C59.0265 133.19 58.3025 132.797 57.776 132.075C57.2604 131.347 57.0026 130.343 57.0026 129.064C57.0026 127.785 57.2604 126.483 57.776 125.159C58.3025 123.829 59.0265 122.607 59.948 121.492C60.8804 120.359 61.917 119.463 63.0579 118.804C64.1987 118.145 65.2244 117.844 66.1349 117.901C67.0563 117.952 67.7803 118.345 68.3069 119.079C68.8334 119.801 69.0967 120.802 69.0967 122.081C69.0967 123.361 68.8334 124.672 68.3069 126.014C67.7803 127.344 67.0563 128.567 66.1349 129.681C65.2244 130.79 64.1987 131.673 63.0579 132.332ZM63.0579 131.078C63.9684 130.552 64.7911 129.843 65.5261 128.95C66.261 128.044 66.8369 127.053 67.2538 125.976C67.6706 124.887 67.879 123.823 67.879 122.784C67.879 121.746 67.6706 120.929 67.2538 120.333C66.8369 119.725 66.261 119.399 65.5261 119.355C64.7911 119.298 63.9684 119.532 63.0579 120.058C62.1474 120.584 61.3192 121.302 60.5733 122.214C59.8383 123.107 59.2569 124.102 58.8291 125.197C58.4122 126.274 58.2038 127.332 58.2038 128.37C58.2038 129.409 58.4122 130.232 58.8291 130.84C59.2569 131.429 59.8383 131.752 60.5733 131.809C61.3192 131.847 62.1474 131.604 63.0579 131.078ZM81.429 114.752C82.2298 114.48 82.8386 114.502 83.2554 114.819C83.6723 115.123 83.8807 115.718 83.8807 116.605C83.8807 117.757 83.5242 118.85 82.8112 119.882C82.1091 120.908 81.0725 121.817 79.7013 122.609L74.6004 125.554L74.6004 112.254L79.3886 109.489C80.6172 108.78 81.5771 108.517 82.2682 108.701C82.9593 108.884 83.3048 109.527 83.3048 110.629C83.3048 111.377 83.1403 112.105 82.8112 112.814C82.4821 113.511 82.0214 114.157 81.429 114.752ZM75.8016 117.583L79.3228 115.55C80.2114 115.037 80.8915 114.436 81.3632 113.745C81.8458 113.049 82.0872 112.301 82.0872 111.503C82.0872 110.705 81.8458 110.237 81.3632 110.097C80.8915 109.952 80.2114 110.135 79.3228 110.648L75.8016 112.681L75.8016 117.583ZM79.7013 121.488C81.6868 120.341 82.6795 118.913 82.6795 117.203C82.6795 115.531 81.6868 115.268 79.7013 116.415L75.8016 118.666L75.8016 123.739L79.7013 121.488ZM94.3444 105.605C95.7047 104.819 96.7413 104.575 97.4543 104.873C98.1783 105.164 98.5403 105.994 98.5403 107.362C98.5403 108.793 98.1564 110.104 97.3885 111.295C96.6316 112.467 95.5346 113.467 94.0976 114.297L89.5233 116.938L89.5233 103.638L90.7244 102.945L90.7244 107.695L94.3444 105.605ZM94.0647 113.195C95.1287 112.581 95.935 111.843 96.4835 110.982C97.0429 110.114 97.3227 109.148 97.3227 108.084C97.3227 106.045 96.2367 105.652 94.0647 106.906L90.7244 108.835L90.7244 115.124L94.0647 113.195ZM100.531 97.2826L101.732 96.5891L101.732 109.889L100.531 110.583L100.531 97.2826ZM108.206 92.8515L109.407 92.158L109.407 103.178L116.779 87.902L117.881 87.2655L117.881 100.565L116.68 101.259L116.68 90.258L109.309 105.515L108.206 106.151L108.206 92.8515ZM113.011 89.1085C112.188 89.5835 111.536 89.745 111.053 89.593C110.581 89.4346 110.34 88.9723 110.329 88.206L111.234 87.6835C111.245 88.1838 111.409 88.4878 111.727 88.5955C112.046 88.7031 112.473 88.6018 113.011 88.2915C113.537 87.9875 113.96 87.598 114.278 87.123C114.607 86.6416 114.777 86.1445 114.788 85.6315L115.693 85.109C115.682 85.888 115.435 86.6321 114.953 87.3415C114.47 88.0508 113.823 88.6398 113.011 89.1085ZM49.0118 162.111L49.0118 166.31L47.8764 166.966L47.8764 163.983L37.8227 169.787L37.8063 172.78L36.6709 173.435L36.6874 169.227L37.2633 168.894C38.0202 168.407 38.5467 167.412 38.8429 165.911C39.1391 164.398 39.3201 162.393 39.3859 159.898L39.5176 155.509L47.2841 151.025L47.2841 163.109L49.0118 162.111ZM40.4719 159.404C40.4171 161.462 40.2799 163.213 40.0606 164.657C39.8521 166.082 39.4956 167.162 38.991 167.897L46.0829 163.802L46.0829 152.934L40.5706 156.117L40.4719 159.404ZM54.0936 147.093L55.2948 146.4L55.2948 157.42L62.6664 142.144L63.7688 141.507L63.7688 154.807L62.5677 155.501L62.5677 144.5L55.196 159.757L54.0936 160.393L54.0936 147.093ZM75.2559 141.221C76.0128 141 76.6052 141.05 77.033 141.373C77.4718 141.69 77.6912 142.247 77.6912 143.045C77.6912 143.818 77.4828 144.616 77.0659 145.439C76.6491 146.263 76.0951 147.032 75.404 147.748C74.7129 148.451 73.9615 149.037 73.1498 149.505C72.3819 149.949 71.625 150.246 70.879 150.398C70.1441 150.531 69.4804 150.484 68.888 150.256L69.3323 148.992C69.8369 149.195 70.4128 149.242 71.06 149.135C71.7072 149.014 72.3599 148.764 73.0181 148.384C73.6434 148.023 74.2193 147.577 74.7458 147.045C75.2724 146.513 75.6892 145.949 75.9964 145.354C76.3145 144.739 76.4736 144.141 76.4736 143.558C76.4736 142.786 76.2103 142.342 75.6837 142.228C75.1572 142.114 74.4167 142.333 73.4624 142.884L70.9942 144.309L70.9942 143.169L73.3966 141.782C74.2083 141.313 74.8391 140.753 75.2888 140.1C75.7496 139.429 75.9799 138.739 75.9799 138.029C75.9799 137.244 75.6892 136.797 75.1078 136.69C74.5264 136.569 73.797 136.763 72.9194 137.269C72.3709 137.586 71.8169 138.001 71.2575 138.514C70.698 139.014 70.166 139.594 69.6614 140.252L69.25 139.331C70.3909 137.887 71.625 136.782 72.9523 136.015C73.7311 135.566 74.4442 135.3 75.0914 135.217C75.7386 135.135 76.2487 135.258 76.6216 135.588C77.0056 135.911 77.1976 136.44 77.1976 137.174C77.1976 137.884 77.0275 138.596 76.6875 139.312C76.3474 140.015 75.8702 140.651 75.2559 141.221ZM90.6843 135.715L84.267 139.42L82.8848 143.771L81.6178 144.502L86.8833 128.162L88.0844 127.469L93.3499 137.729L92.0664 138.47L90.6843 135.715ZM90.24 134.831L87.4756 129.283L84.7113 138.023L90.24 134.831ZM98.1552 121.654L99.3564 120.961L99.3564 131.981L106.728 116.705L107.83 116.068L107.83 129.368L106.629 130.062L106.629 119.061L99.2576 134.318L98.1552 134.954L98.1552 121.654ZM102.96 117.911C102.137 118.386 101.484 118.548 101.002 118.396C100.53 118.238 100.289 117.775 100.278 117.009L101.183 116.486C101.194 116.987 101.358 117.291 101.676 117.398C101.995 117.506 102.422 117.405 102.96 117.094C103.486 116.79 103.909 116.401 104.227 115.926C104.556 115.445 104.726 114.947 104.737 114.434L105.642 113.912C105.631 114.691 105.384 115.435 104.902 116.144C104.419 116.854 103.772 117.443 102.96 117.911ZM123.941 106.767L123.941 120.067L122.74 120.76L122.74 114.623L115.533 118.784L115.533 124.921L114.315 125.624L114.315 112.324L115.533 111.621L115.533 117.549L122.74 113.388L122.74 107.46L123.941 106.767ZM71.2509 165.489C71.0096 165.628 70.8011 165.647 70.6256 165.546C70.4611 165.438 70.3788 165.238 70.3788 164.947C70.3788 164.656 70.4611 164.368 70.6256 164.083C70.8011 163.779 71.0096 163.557 71.2509 163.418C71.4922 163.278 71.7007 163.259 71.8762 163.361C72.0517 163.449 72.1394 163.639 72.1394 163.931C72.1394 164.222 72.0517 164.52 71.8762 164.824C71.7007 165.128 71.4922 165.349 71.2509 165.489ZM71.2509 173.583C71.0096 173.722 70.8011 173.741 70.6256 173.64C70.4611 173.532 70.3788 173.332 70.3788 173.041C70.3788 172.75 70.4611 172.462 70.6256 172.177C70.8011 171.873 71.0096 171.651 71.2509 171.512C71.4922 171.372 71.7007 171.353 71.8762 171.455C72.0517 171.543 72.1394 171.733 72.1394 172.025C72.1394 172.316 72.0517 172.614 71.8762 172.918C71.7007 173.222 71.4922 173.443 71.2509 173.583ZM73.9809 166.173L78.292 163.684L78.292 164.862L73.9809 167.351L73.9809 166.173ZM81.1524 154.471L85.8419 151.764C87.0595 151.061 88.1346 150.725 89.067 150.757C89.9994 150.776 90.7234 151.143 91.239 151.859C91.7546 152.562 92.0123 153.559 92.0123 154.851C92.0123 156.143 91.7546 157.445 91.239 158.756C90.7234 160.054 89.9994 161.257 89.067 162.366C88.1346 163.461 87.0595 164.361 85.8419 165.064L81.1524 167.771L81.1524 154.471ZM85.7761 163.886C86.7853 163.303 87.6684 162.565 88.4253 161.672C89.1822 160.766 89.7691 159.788 90.1859 158.737C90.6027 157.673 90.8112 156.609 90.8112 155.545C90.8112 154.481 90.6027 153.664 90.1859 153.094C89.7691 152.511 89.1822 152.21 88.4253 152.191C87.6684 152.159 86.7853 152.435 85.7761 153.018L82.37 154.984L82.37 165.852L85.7761 163.886Z" fill="white"/>
<defs>
<linearGradient id="paint0_linear" x1="96.2399" y1="-47.5036" x2="-78.1865" y2="92.7575" gradientUnits="userSpaceOnUse">
<stop stop-color="#5287FC"/>
<stop offset="1" stop-color="#DD5DFC"/>
</linearGradient>
<linearGradient id="paint1_linear" x1="150.595" y1="25.6995" x2="11.5157" y2="122.101" gradientUnits="userSpaceOnUse">
<stop stop-color="#6E52FC"/>
<stop offset="1" stop-color="#DD5DFC"/>
</linearGradient>
</defs>
</svg>
